<svg height="32" viewBox="0 0 32 32" width="32" xmlns="http://www.w3.org/2000/svg"><path d="m13.847 1.051c-1.809-1.044-3.916-1.322-5.934-.781s-3.704 1.835-4.748 3.644c-1.624 2.813-2.744 6.862-3.073 11.109-.14 1.808-.117 3.461.068 4.78.214 1.532.619 2.451 1.24 2.809.238.137.531.206.883.206.567 0 1.286-.178 2.17-.537 1.234-.5 2.678-1.306 4.174-2.332 3.513-2.408 6.46-5.403 8.084-8.216 2.156-3.734.872-8.526-2.862-10.682zm1.78 10.058c-1.534 2.657-4.344 5.504-7.708 7.81-1.403.961-2.8 1.744-3.936 2.204-1.547.627-1.955.409-1.959.407s-.396-.246-.627-1.9c-.169-1.214-.19-2.816-.059-4.511.315-4.067 1.375-7.923 2.909-10.581 1.216-2.105 3.428-3.284 5.701-3.284 1.114 0 2.242.283 3.274.879.54.312 1.019.689 1.433 1.117-.323.758-.666 1.515-1.025 2.254-.151.31-.022.684.289.835.088.043.181.063.273.063.232 0 .454-.129.563-.352.268-.55.526-1.111.775-1.674 1.222 1.99 1.345 4.572.098 6.732z"/><path d="m6.066 9.844c-.309-.154-.684-.028-.838.281-.849 1.707-1.607 3.477-2.254 5.262-.118.324.05.683.375.8.07.026.142.038.213.038.256 0 .495-.158.588-.412.631-1.74 1.37-3.466 2.198-5.131.154-.309.028-.684-.281-.838z"/><path d="m7.56 7.14c.102.062.214.091.325.091.211 0 .416-.107.534-.3.564-.925 1.165-1.841 1.786-2.723.199-.282.131-.672-.151-.871s-.672-.131-.871.151c-.637.904-1.253 1.844-1.831 2.792-.18.295-.087.679.208.859z"/><path d="m9.396 13.664c-.274-.21-.666-.158-.876.117-.751.981-1.549 1.945-2.373 2.867-.23.257-.208.652.049.882.119.107.268.159.416.159.172 0 .343-.07.466-.208.845-.945 1.664-1.935 2.434-2.941.21-.274.158-.666-.116-.876z"/><path d="m12.887 8.283c-.299-.172-.681-.07-.854.229-.575.997-1.193 1.986-1.838 2.94-.193.286-.118.674.168.868.107.072.229.107.349.107.201 0 .398-.096.518-.275.661-.978 1.295-1.993 1.885-3.015.172-.299.07-.681-.229-.854z"/><path d="m29.106 13.023c-.783-1.636-1.629-3.056-2.448-4.106-.951-1.22-1.762-1.813-2.479-1.813-1.726 0-3.965 3.693-5.357 6.856-.139.316.004.685.32.824s.685-.004.824-.32c.771-1.751 1.664-3.351 2.515-4.507.968-1.315 1.554-1.603 1.698-1.603.005 0 .466.015 1.493 1.332.754.966 1.573 2.343 2.307 3.877 1.761 3.679 2.771 7.549 2.771 10.618 0 3.623-2.947 6.57-6.57 6.57-.624 0-1.227-.087-1.799-.251-.1-.818-.181-1.645-.239-2.465-.024-.344-.323-.603-.668-.579s-.604.323-.579.668c.043.61.099 1.225.166 1.838-2.053-1.112-3.451-3.287-3.451-5.781 0-1.36.197-2.875.585-4.502.08-.336-.127-.673-.463-.753s-.673.127-.753.463c-.41 1.722-.619 3.334-.619 4.792 0 4.312 3.508 7.82 7.82 7.82s7.82-3.508 7.82-7.82c0-3.248-1.055-7.315-2.893-11.157z"/><path d="m26.427 14.149c-.06-.34-.385-.566-.725-.506s-.566.385-.506.725c.324 1.822.547 3.687.662 5.543.021.331.296.586.623.586.013 0 .026 0 .039-.001.344-.021.606-.318.585-.663-.118-1.903-.347-3.815-.679-5.684z"/><path d="m25.939 24.193c-.026 1.083-.088 2.176-.185 3.251-.031.344.223.648.566.679.019.002.038.003.057.003.32 0 .593-.244.622-.569.099-1.102.163-2.223.19-3.333.008-.345-.265-.631-.61-.64-.346-.01-.632.265-.64.61z"/><path d="m21.809 18.857c.309 0 .578-.229.619-.544.155-1.193.358-2.397.602-3.576.07-.338-.147-.669-.485-.739s-.669.147-.739.485c-.25 1.21-.458 2.444-.617 3.668-.045.342.197.656.539.7.027.004.055.005.082.005z"/><path d="m20.894 21.079c-.083 1.178-.125 2.374-.125 3.554 0 .345.28.625.625.625.345 0 .625-.28.625-.625-.001-1.151.04-2.316.122-3.465.024-.344-.235-.643-.579-.667s-.643.235-.667.579z"/><path d="m18.371 17.457c.345 0 .625-.28.625-.625s-.28-.625-.625-.625-.625.28-.625.625.28.625.625.625z"/></svg>