<svg height="32" viewBox="0 0 32 32" width="32" xmlns="http://www.w3.org/2000/svg"><path d="m31.468 12.036c-.103-.563-.437-1.052-.942-1.378-.239-.154-.487-.288-.741-.412 1.104-.333 1.863-1.442 1.691-2.58-.085-.557-.381-1.036-.834-1.349-.052-.036-.11-.059-.165-.09-.001-.006 0-.013-.001-.019-.085-.557-.381-1.036-.834-1.349-.47-.325-1.054-.433-1.639-.308-.257.055-.511.125-.761.209.084-.25.154-.505.209-.761.127-.587.017-1.17-.307-1.639-.313-.454-.792-.75-1.351-.835-.006-.001-.012 0-.018-.002-.031-.054-.054-.113-.09-.164-.313-.454-.792-.75-1.349-.834-1.135-.173-2.247.586-2.579 1.692-.124-.254-.258-.503-.412-.742-.326-.504-.815-.839-1.378-.942-.543-.099-1.09.03-1.543.365-1.009.743-1.225 2.248-.473 3.288.472.652.884 1.363 1.223 2.112l.105.232c-2.025-.194-4.026.513-5.496 1.983-.355.355-.673.752-.943 1.178l-12.056 19.009c-.461.727-.357 1.659.251 2.267.354.354.818.537 1.288.537.337 0 .676-.094.979-.287l19.011-12.055c.426-.27.822-.587 1.179-.945 1.468-1.468 2.175-3.468 1.98-5.494l.233.105c.749.339 1.461.751 2.113 1.223.419.303.914.449 1.404.449.726 0 1.441-.32 1.885-.922.334-.452.463-1.001.365-1.542zm-2.141-2.697c-.457.072-.915.175-1.366.298-.828-.159-1.689-.182-2.549-.053l-.081.012.101-.137c.926-1.255 2.304-2.156 3.781-2.473.315-.069.621-.013.862.153.223.155.371.395.413.676.105.694-.437 1.406-1.161 1.523zm-1.115-3.81c.315-.069.621-.013.862.153.111.077.203.175.273.288-.115.006-.229.015-.345.04-1.737.372-3.291 1.387-4.376 2.856l-.694.941-1.216.184 3.846-3.845c.525-.286 1.079-.495 1.649-.617zm-2.221-2.531c.025-.115.033-.23.04-.344.113.07.211.162.288.272.166.241.22.547.153.862-.123.571-.331 1.126-.617 1.65l-3.845 3.845.184-1.216.941-.694c1.469-1.085 2.483-2.639 2.856-4.375zm-3.33-.324c.116-.724.831-1.264 1.523-1.161.281.043.522.19.677.413.166.241.22.547.153.862-.317 1.477-1.218 2.855-2.472 3.781l-.137.101.013-.082c.129-.86.107-1.721-.053-2.55.123-.451.225-.909.297-1.365zm-3.902.925c-.43-.594-.311-1.481.255-1.897.18-.132.387-.202.597-.202.057 0 .115.006.173.016.288.052.543.23.718.501.82 1.268 1.157 2.881.925 4.422l-.273 1.813-1.071-2.367c-.368-.811-.814-1.58-1.325-2.287zm4.022 13.914c-.304.303-.642.575-1.006.805l-19.011 12.055c-.328.209-.749.161-1.024-.113s-.322-.696-.113-1.025l12.055-19.01c.231-.364.502-.703.808-1.009 1.396-1.396 3.355-1.976 5.28-1.597l1.17 2.585c.026.056.063.103.105.145l-.002.002.604.604.001-.002c.042.042.09.079.146.104l2.586 1.17c.381 1.927-.2 3.886-1.598 5.284zm7.518-4.527c-.418.566-1.303.684-1.897.256-.707-.511-1.476-.957-2.287-1.325l-2.367-1.071 1.813-.274c1.541-.233 3.154.104 4.422.925.271.175.448.43.501.718.048.267-.017.54-.186.77z"/><path d="m17.103 14.897c-1.034-1.034-1.603-2.409-1.603-3.872v-.025l-1 .025c0 1.729.673 3.356 1.897 4.578s2.849 1.897 4.603 1.897l-.025-1c-1.463 0-2.838-.569-3.872-1.603z"/><path d="m14.267 17.561c-.817-.818-1.267-1.905-1.267-3.061h-1c0 1.423.554 2.761 1.561 3.767l.172.172c1.007 1.007 2.344 1.561 3.767 1.561v-1c-1.156 0-2.243-.45-3.061-1.267z"/><path d="m11.604 20.397c-.712-.712-1.104-1.657-1.104-2.664v-.233h-1v.233c0 1.273.496 2.471 1.396 3.371s2.098 1.397 3.371 1.397h.233v-1h-.233c-1.006 0-1.952-.392-2.664-1.103z"/><path d="m8.354 23.647c-.228-.228-.354-.532-.354-.854v-.793h-1v.793c0 .59.229 1.144.646 1.561s.971.647 1.56.647h.793v-1h-.793c-.322 0-.626-.125-.854-.353z"/></svg>