<svg fill="none" height="20" viewBox="0 0 18 20" width="18" xmlns="http://www.w3.org/2000/svg"><path d="m18.0004 5v11.875c0 1.75-1.4143 3.125-3.2143 3.125h-11.57145c-1.8 0-3.21428379-1.375-3.21428379-3.125v-11.875h3.85714379c0-2.75 2.31428-5 5.14286-5 2.82853 0 5.14283 2.25 5.14283 5zm-1.2857 1.25h-2.5715v1.875c0 .375-.2571.625-.6428.625s-.6429-.25-.6429-.625v-1.875h-7.71428v1.875c0 .375-.25714.625-.64285.625-.38572 0-.64286-.25-.64286-.625v-1.875h-2.57143v10.625c0 1.0625.83571 1.875 1.92857 1.875h11.57145c1.0928 0 1.9286-.8125 1.9286-1.875zm-11.57148-1.25h7.71428c0-2.0625-1.7357-3.75-3.85713-3.75s-3.85715 1.6875-3.85715 3.75z" fill="#000"/></svg>