<svg height="32" viewBox="0 0 32 32" width="32" xmlns="http://www.w3.org/2000/svg"><path d="m23.125 13c-1.189 0-2.324.236-3.361.662-.38-.949-.582-1.974-.582-3.026 0-3.373 2.064-6.274 4.996-7.505-.397.704-.728 1.552-.84 2.471-.174 1.432.199 2.747 1.111 3.908 1.057 1.346 2.104 1.723 3.028 2.055.753.271 1.404.505 2.029 1.273.12.147.343.23.529.23.029 0-.03-.002 0-.006.217-.031.447-.174.532-.377.09-.214 2.178-5.277.145-7.866-.989-1.259-2.077-1.723-2.871-2.062-.224-.095-.409-.177-.565-.256.014 0 .029-.001.043-.001h.682c.345 0 .625-.28.625-.625s-.28-.625-.625-.625h-3.379c-4.373 0-8.484 1.703-11.576 4.795-1.97 1.97-3.375 4.354-4.136 6.956-.011 0-.023-.001-.034-.001-4.894 0-8.875 3.981-8.875 8.875s3.981 8.875 8.875 8.875c1.571 0 3.114-.416 4.464-1.203 1.04-.606 1.947-1.421 2.663-2.384 1.619 2.175 4.209 3.587 7.123 3.587 4.894 0 8.875-3.981 8.875-8.875s-3.981-8.875-8.875-8.875zm6.603-7.409c1.078 1.372.532 4.092.008 5.725-.623-.491-1.257-.719-1.836-.927-.839-.302-1.632-.587-2.468-1.651-.699-.89-.986-1.894-.853-2.985.077-.633.287-1.223.542-1.731.23.819.591 1.599 1.077 2.312.121.178.317.273.517.273.121 0 .244-.035.351-.109.285-.194.359-.583.164-.869-.479-.703-.815-1.482-.996-2.302.338.247.73.414 1.115.579.744.317 1.587.677 2.378 1.685zm-7.366-2.922c-2.657 1.659-4.429 4.61-4.429 7.966 0 1.248.246 2.463.708 3.584-1.03.606-1.928 1.413-2.639 2.368-.714-.961-1.618-1.774-2.655-2.379-.972-.568-2.045-.942-3.156-1.109 1.708-5.439 6.413-9.564 12.171-10.43zm-13.487 26.831c-4.204 0-7.625-3.421-7.625-7.625 0-4.111 3.27-7.472 7.345-7.619-.199.955-.313 1.934-.339 2.928-.173-.076-.333-.184-.47-.322-.244-.244-.64-.244-.884 0s-.244.64 0 .884c.527.527 1.228.817 1.973.817s1.446-.29 1.973-.817c.244-.244.244-.64 0-.884s-.64-.244-.884 0c-.134.134-.289.24-.457.316.028-.98.151-1.937.358-2.863 2.199.291 4.194 1.54 5.413 3.418-.655 1.237-1.027 2.646-1.027 4.141s.372 2.904 1.027 4.141c-1.399 2.156-3.823 3.484-6.402 3.484zm14.25 0c-4.205 0-7.625-3.421-7.625-7.625 0-2.768 1.483-5.196 3.695-6.532.407.702.908 1.352 1.493 1.935-.16.013-.324.002-.485-.037-.336-.08-.673.128-.753.464s.128.673.464.753c.216.051.432.076.645.076 1.263 0 2.41-.865 2.715-2.145.08-.336-.128-.673-.463-.753s-.673.128-.753.464c-.046.194-.128.373-.24.532-.594-.545-1.097-1.167-1.499-1.845.869-.345 1.816-.535 2.806-.535 4.204 0 7.625 3.421 7.625 7.625s-3.421 7.625-7.625 7.625z"/><path d="m7.678 25.821c-.171-.036-.342-.086-.511-.149-1.301-.49-2.134-1.679-2.235-2.979-.031-.398-.582-.465-.729-.094-.005.014.005-.014 0 0-.571 1.514.145 3.202 1.642 3.816.613.251 1.259.283 1.852.133.381-.097.365-.645-.02-.726z"/><path d="m21.749 25.821c-.171-.036-.342-.086-.511-.149-1.301-.49-2.134-1.679-2.235-2.979-.031-.398-.582-.465-.729-.094-.005.014.005-.014 0 0-.571 1.514.145 3.202 1.642 3.816.613.251 1.259.283 1.852.133.381-.097.365-.645-.02-.726z"/></svg>