<svg fill="none" height="48" viewBox="0 0 48 48" width="48" xmlns="http://www.w3.org/2000/svg"><g fill="#5c9963"><path d="m42.9999 8h-37.99994c-2.75596 0-4.99996 2.244-4.99996 5.0001v21.9999c0 2.756 2.244 5 4.99996 5h37.99994c2.7559 0 4.9999-2.244 4.9999-5v-21.9999c.0001-2.7561-2.2439-5.0001-4.9999-5.0001zm3 26.9999c0 1.6541-1.3459 3-3 3h-37.99994c-1.65403 0-3-1.3459-3-3v-21.9998c0-1.6541 1.34597-3 3-3h37.99994c1.654 0 2.9999 1.3459 2.9999 3v21.9998z"/><path d="m46.9999 14h-45.99987c-.552 0-1.00003.448-1.00003 1v6c0 .552.44803 1 1.00003 1h45.99997c.552 0 1-.448 1-1v-6c-.0001-.552-.4481-1-1.0001-1zm-1 6h-43.99994v-4h43.99984v4z"/><path d="m19 28h-11.99997c-.552 0-1.00003.448-1.00003 1s.44803 1 1.00003 1h11.99997c.552 0 1-.4481 1-1.0001s-.448-.9999-1-.9999z"/><path d="m19 31.9999h-11.99997c-.552 0-1.00003.4481-1.00003 1.0001s.44803 1 1.00003 1h11.99997c.552 0 1-.448 1-1-.0001-.552-.448-1.0001-1-1.0001z"/><path d="m39 25.9999h-2c-1.654 0-3 1.346-3 3v2c0 1.654 1.346 3 3 3h2c1.654 0 3-1.346 3-3v-2c0-1.6539-1.346-3-3-3zm1 5.0001c0 .552-.448 1-1 1h-2c-.552 0-1-.448-1-1v-2c0-.552.448-1 1-1h2c.552 0 1 .448 1 1z"/></g></svg>