<svg height="21.385" width="19.384" xmlns="http://www.w3.org/2000/svg"><path d="m16.851 6.769h-.99l-.8 11.997c-.034.521-.465.926-.984.926h-9.231c-.52 0-.95-.405-.985-.926l-.799-11.995-.991-.002c-.506 0-.917-.413-.917-.923s.411-.924.917-.924h2.775 9.231 2.774c.507 0 .918.414.918.924s-.411.923-.918.923zm-2.836 0h-9.108l.001.002.738 11.075h7.63l.739-11.075zm-1.784-3.693h-5.539c-.511 0-.923-.412-.923-.923 0-.51.412-.923.923-.923h5.539c.51 0 .922.413.922.923 0 .511-.412.923-.922.923z" fill="#d8d8d8" fill-rule="evenodd" stroke="#979797" stroke-width=".923"/></svg>