<svg height="32" viewBox="0 0 32 32" width="32" xmlns="http://www.w3.org/2000/svg"><path d="m26.922 15.608c.1.1.162.239.162.392s-.062.292-.162.392-.239.162-.392.162h-9.975v9.975c0 .153-.062.292-.162.392s-.239.162-.392.162-.292-.062-.392-.162-.162-.239-.162-.392v-9.975h-9.975c-.153 0-.292-.062-.392-.162s-.162-.239-.162-.392.062-.292.162-.392.239-.162.392-.162h9.975v-9.975c0-.153.062-.292.162-.392s.239-.162.392-.162.292.062.392.162l.162 10.367h9.975c.153 0 .292.062.392.162z" stroke-width="1.2308"/></svg>