<svg height="32" viewBox="0 0 32 32" width="32" xmlns="http://www.w3.org/2000/svg"><path d="m22.562 2.597c4.837 0 8.825 4.244 8.892 9.458.011 1.006-.123 1.99-.4 2.927-.466 2.363-3.413 5.782-8.976 10.338-2.138 1.762-3.878 3.074-5.172 3.894-.213.135-.457.204-.7.204-.217 0-.434-.054-.631-.162l-.166-.11-.406-.283c-.971-.674-3.242-2.254-4.747-3.417-5.775-4.496-8.725-7.737-9.286-10.203-.27-.812-.428-1.793-.439-2.801-.036-2.677.976-5.262 2.774-7.09 1.637-1.665 3.786-2.588 6.05-2.597h.001c2.554 0 4.876 1.034 6.551 2.833 1.644-1.866 3.963-2.956 6.487-2.991zm0 2.617-.13.002c-2.224.03-4.226 1.234-5.359 3.222-.229.405-.655.656-1.12.662-.436-.001-.897-.234-1.137-.633-1.172-1.937-3.178-3.095-5.369-3.095-1.643.007-3.132.651-4.277 1.815-1.311 1.334-2.049 3.238-2.022 5.222.007.746.123 1.465.343 2.14.261 1.122 1.649 3.599 8.369 8.83 1.324 1.023 3.306 2.41 4.366 3.147 1.113-.769 2.543-1.87 4.191-3.228 6.566-5.378 7.893-7.913 8.1-8.944.231-.799.329-1.524.32-2.266-.048-3.791-2.864-6.875-6.274-6.875zm-.095 1.965c2.437 0 4.373 2.167 4.406 4.935.009.537-.063 1.068-.213 1.575l-.069.281c-.064.309-.336.521-.639.521l-.134-.014c-.356-.074-.581-.421-.508-.774l.094-.377c.113-.388.167-.788.161-1.195-.025-2.044-1.385-3.644-3.095-3.644-.362 0-.655-.293-.655-.654 0-.362.29-.655.652-.655z"/></svg>