<svg height="32" viewBox="0 0 32 32" width="32" xmlns="http://www.w3.org/2000/svg"><path d="m3.963 16.006c.122.122.282.183.442.183s.32-.061.442-.183l.245-.245.245.245c.122.122.282.183.442.183s.32-.061.442-.183c.244-.244.244-.64 0-.884l-.245-.245.245-.245c.244-.244.244-.64 0-.884s-.64-.244-.884 0l-.245.245-.245-.245c-.244-.244-.64-.244-.884 0s-.244.64 0 .884l.245.245-.245.245c-.244.244-.244.64 0 .884z"/><path d="m31.942 21.524c-1.482-3.187-1.482-6.868 0-10.054.11-.235.062-.514-.119-.7s-.459-.24-.697-.137l-5.344 2.324c-.781-.379-3.135-1.504-5.633-2.522l1.308-1.526c.115-.134.167-.309.146-.484s-.116-.332-.26-.434c-1.837-1.296-4.088-2.106-6.69-2.407-1.368-.158-2.761.161-3.923.898-1.095.694-1.94 1.731-2.4 2.938-1.612.569-2.702 1.205-2.775 1.248-.002.001-5.261 3.288-5.261 3.288-.203.127-.316.358-.29.596s.184.441.409.522c1.071.387 1.098.947 1.093 1.052l.002.196c.001.006.05.629-1.095 1.043-.225.081-.384.284-.409.522s.087.469.29.596l5.247 3.279c.808.506 1.74.873 2.631 1.195 1.567.567 3.239.954 4.913.954.228 0 .558-.02.798-.038l1.95 2.117c.404.438 1.044.586 1.599.369.562-.22.926-.751.926-1.355v-2.17c3.084-.978 6.471-2.345 7.407-2.728l5.37 2.234c.235.098.514.04.691-.144.179-.186.225-.437.116-.671zm-17.433-14.699c2.123.246 3.982.853 5.537 1.808l-1.127 1.315c-.38-.145-.761-.287-1.145-.422l.347-.486c.2-.281.135-.671-.146-.872s-.671-.135-.872.146l-.569.799c-.38-.117-.732-.215-1.057-.296l.295-.424c.197-.283.127-.673-.156-.87s-.673-.128-.87.156l-.622.894c-.157-.013-.558-.044-.871-.053l.087-.124c.199-.282.131-.672-.151-.871s-.672-.131-.871.151l-.659.936c-.564.07-1.124.177-1.677.312.976-1.459 2.72-2.308 4.526-2.099zm-11.758 9.393c.016-.286-.022-1.104-.883-1.773l3.893-2.433c.978 1.168 1.686 2.657 1.688 4.202 0 1.548-.707 3.04-1.688 4.21l-3.893-2.433c.861-.669.9-1.487.883-1.773zm10.313 6.441c-2.137 0-4.288-.685-6.195-1.612.96-1.203 1.65-2.666 1.799-4.208h9.2c.345 0 .625-.28.625-.625s-.28-.625-.625-.625h-9.201c-.15-1.54-.841-2.999-1.799-4.2 1.725-.844 3.618-1.455 5.54-1.59.223-.016.446-.03.669-.03 1.615-.014 3.207.463 4.679 1.079 1.216.51 6.692 2.854 7.385 3.188v1.553h-1.768c-.345 0-.625.28-.625.625s.28.625.625.625h1.768v2.17c-1.381.561-2.773 1.098-4.175 1.608-1.852.674-3.731 1.336-5.656 1.77-.733.165-1.492.287-2.246.272.039 0 .078.002.117.002-.039 0-.078-.001-.117-.002.039 0 .078.002.117.002-.039 0-.078-.001-.117-.002.039 0 .078.002.117.002-.039 0-.078-.001-.117-.002.039 0 .078.002.117.002-.039 0-.078-.001-.117-.002.039 0 .078.002.117.002-.039 0-.078-.001-.117-.002.266.005-.003 0 0 0zm4.044.551v1.792c0 .116-.071.168-.13.191s-.147.033-.225-.052l-1.373-1.491c.582-.124 1.157-.276 1.729-.44zm9.283-4.199v-.687l1.44.176c.026.003.051.005.077.005.311 0 .581-.232.62-.549.042-.343-.202-.655-.544-.696l-1.592-.195v-1.113l1.714-.304c.34-.06.567-.385.506-.724s-.385-.567-.724-.506l-1.496.265v-.628l3.847-1.673c-.881 2.677-.878 5.559.01 8.235l-3.857-1.605z"/><path d="m20.072 16.457c.129.315.503.469.816.338s.469-.501.338-.816c-.129-.315-.503-.469-.816-.338s-.469.501-.338.816c-.016-.038.016.038 0 0z"/></svg>