<svg fill="none" height="44" viewBox="0 0 44 44" width="44" xmlns="http://www.w3.org/2000/svg"><g fill="#5c9963"><path d="m13.2921 18.3332h-11.91615c-.758989 0-1.37497344-.616-1.37497344-1.3749v-11.91658c0-.75899.61598444-1.37497 1.37497344-1.37497.75899 0 1.37497.61598 1.37497 1.37497v10.54158h10.54118c.759 0 1.375.616 1.375 1.375 0 .7589-.616 1.3749-1.375 1.3749z"/><path d="m33.4584 23.3746h-11.4579c-.759 0-1.375-.616-1.375-1.375v-11.458c0-.75899.616-1.37497 1.375-1.37497.7589 0 1.3749.61598 1.3749 1.37497v10.083h10.083c.759 0 1.375.616 1.375 1.375s-.616 1.375-1.375 1.375z"/><path d="m22.0005 43.9991c-5.885 0-11.4087-2.2914-15.54838-6.4549-.53709-.5391-.5334-1.4099.0037-1.9453.53911-.5334 1.40988-.5371 1.94496.0037 3.62272 3.6412 8.45162 5.6465 13.59972 5.6465 10.6147 0 19.2496-8.6348 19.2496-19.2496 0-10.6147-8.6349-19.24956-19.2496-19.24956-9.0528 0-17.16538 6.11789-19.29027 14.54566-.18698.7368-.94597 1.1823-1.67004.997-.736835-.187-1.182291-.9329-.9990066-1.6718 2.4307066-9.63047 11.6651166-16.6208 21.9593166-16.6208 12.1307 0 21.9995 9.86884 21.9995 21.9995 0 12.1311-9.8688 21.9996-21.9995 21.9996z"/></g></svg>