<svg fill="none" height="48" viewBox="0 0 48 48" width="48" xmlns="http://www.w3.org/2000/svg"><g fill="#5c9963"><path d="m23.2119 8.3848c-.376.48141-9.2119 11.8887-9.2119 19.5566 0 5.2015 3.9609 9.4437 9 9.9569v3.1018c0 .5527.4473 1 1 1 .5528 0 1.0001-.4473 1.0001-1v-3.1018c5.039-.5132 9-4.7554 9-9.9569 0-7.668-8.836-19.07519-9.2119-19.5566-.379-.48637-1.1975-.48637-1.5763 0zm-.212 27.5133c-3.9355-.5023-7-3.8583-7-7.9567 0-.6041.0775-1.2453.1967-1.9032l6.8033 5.443zm0-6.9786-6.264-5.0123c.4407-1.3876 1.0422-2.817 1.731-4.2162l4.5331 3.7779v5.4506zm0-8.0548-3.5869-2.9899c1.2255-2.2392 2.5547-4.2896 3.5869-5.7863zm2.0001-8.7762c1.0322 1.4967 2.3614 3.5471 3.5868 5.7863l-3.5868 2.9899zm0 11.3805 4.5331-3.778c.6886 1.3992 1.2902 2.8287 1.731 4.2163l-6.264 5.0123v-5.4506zm0 8.0121 6.8033-5.443c.1192.658.1967 1.2991.1967 1.9032 0 4.0984-3.0645 7.4544-7 7.9567z"/><path d="m46.3848 27.7207c.7578-1.0694 1.6152-2.2813 1.6152-3.7207s-.8574-2.6513-1.6152-3.7208c-.4971-.7021-.9669-1.3652-1.1299-1.9746-.1738-.6534-.0986-1.4892-.0195-2.375.1211-1.3437.2452-2.7344-.4482-3.9326-.7031-1.2168-2.0381-1.8321-3.2158-2.37403-.7978-.36816-1.5508-.71485-2.0147-1.17872-.4639-.46388-.8106-1.21781-1.1787-2.01469-.543-1.17778-1.1582-2.51269-2.3741-3.21581-1.2002-.69431-2.5898-.56841-3.9335-.44925-.8858.07809-1.7207.15328-2.3741-.0195-.6103-.16312-1.2734-.63281-1.9756-1.12987-1.0694-.757692-2.2813-1.61513-3.7207-1.61513s-2.6513.857437-3.7208 1.61522c-.7021.49706-1.3652.96684-1.9746 1.12987-.6553.17288-1.4912.09769-2.375.0195-1.3428-.12009-2.7324-.24609-3.9326.44822-1.2168.70313-1.8321 2.03813-2.37403 3.21582-.36816.79781-.71485 1.55081-1.17872 2.01468-.46388.46388-1.21781.81056-2.01469 1.17872-1.17778.54297-2.51269 1.15817-3.21581 2.37407-.69338 1.1982-.56934 2.5889-.44925 3.9335.08006.8848.15431 1.7217-.0195 2.3741-.16312.6103-.63281 1.2734-1.12987 1.9755-.757692 1.0695-1.61513 2.2814-1.61513 3.7208s.857437 2.6513 1.61522 3.7207c.49706.7022.96684 1.3653 1.12987 1.9747.17382.6534.09863 1.4892.0195 2.375-.12112 1.3437-.24515 2.7344.44822 3.9326.70313 1.2168 2.03813 1.8321 3.21582 2.374.79781.3682 1.55081.7149 2.01468 1.1788.46388.4638.81056 1.2178 1.17872 2.0146.54297 1.1778 1.15817 2.5127 2.37407 3.2159 1.1992.6933 2.5889.5684 3.9335.4492.8838-.0811 1.7198-.1563 2.3741.0195.6103.1631 1.2734.6328 1.9755 1.1299 1.0695.7577 2.2814 1.6151 3.7208 1.6151s2.6513-.8574 3.7207-1.6152c.7022-.4971 1.3653-.9669 1.9747-1.1299.6514-.1758 1.4892-.1006 2.375-.0195 1.3428.1211 2.7324.247 3.9326-.4482 1.2168-.7031 1.8321-2.0381 2.374-3.2158.3682-.7978.7149-1.5508 1.1788-2.0147.4638-.4639 1.2178-.8106 2.0146-1.1787 1.1778-.543 2.5127-1.1582 3.2159-2.3741.6933-1.1982.5693-2.5889.4492-3.9335-.0801-.8848-.1543-1.7217.0195-2.3741.1629-.6104.6327-1.2735 1.1298-1.9756zm-1.6318-1.1563c-.5772.8155-1.1739 1.6592-1.4297 2.6153-.2656.9951-.1719 2.0498-.0801 3.0694.0967 1.082.1885 2.1035-.1875 2.7529-.3867.6671-1.3271 1.1007-2.3223 1.5596-.9218.4247-1.875.8642-2.5918 1.5811-.7168.7168-1.1562 1.6699-1.5811 2.5918-.4579.9951-.8915 1.9355-1.5595 2.3223-.6504.3759-1.6729.2832-2.7519.1865-1.0215-.0928-2.0743-.1875-3.0704.0801-.9551.2558-1.7988.8525-2.6142 1.4297-.9052.6416-1.7617 1.247-2.5644 1.247s-1.6592-.6054-2.5644-1.247c-.8155-.5772-1.6592-1.1739-2.6153-1.4297-.4873-.1309-.9892-.1738-1.4942-.1738-.5264 0-1.0547.0468-1.5752.0937-1.083.0977-2.1025.1885-2.7529-.1875-.6671-.3867-1.1007-1.3271-1.5596-2.3223-.4247-.9218-.8642-1.875-1.58106-2.5918-.71682-.7169-1.66997-1.1564-2.59182-1.5812-.99515-.4579-1.93556-.8915-2.32228-1.5595-.37593-.6494-.28415-1.6709-.18656-2.7519.09178-1.0196.18553-2.0743-.08006-3.0704-.25585-.9551-.85256-1.7988-1.42969-2.6142-.64162-.9052-1.24706-1.7617-1.24706-2.5644s.60544-1.6592 1.24706-2.5644c.57713-.8155 1.17384-1.6592 1.42969-2.6153.26559-.9951.17184-2.0498.08006-3.0694-.09666-1.082-.18844-2.1035.1875-2.7529.38672-.6671 1.32713-1.1007 2.32228-1.5596.92185-.4247 1.875-.8642 2.59181-1.58106.71683-.71682 1.15623-1.66997 1.58113-2.59182.4579-.99515.8915-1.93556 1.5595-2.32228.6474-.37697 1.6689-.28612 2.7519-.18656 1.0186.09178 2.0723.18656 3.0703-.08006.9552-.25585 1.7989-.85256 2.6143-1.42969.9052-.64162 1.7617-1.24706 2.5644-1.24706s1.6592.60544 2.5644 1.24706c.8155.57713 1.6592 1.17384 2.6153 1.42969.9941.26662 2.0479.17184 3.0694.08006 1.0849-.09469 2.1045-.1875 2.7529.1875.6671.38672 1.1007 1.32713 1.5596 2.32228.4248.92185.8643 1.875 1.5811 2.59181.7168.71683 1.6699 1.15623 2.5918 1.58113.9951.4579 1.9355.8915 2.3223 1.5595.3759.6494.2841 1.6709.1865 2.7519-.0918 1.0196-.1855 2.0743.0801 3.0703.2558.9552.8525 1.7989 1.4297 2.6143.6416.9052 1.247 1.7617 1.247 2.5644s-.6055 1.6593-1.247 2.5645z"/></g></svg>