<svg height="32" viewBox="0 0 32 32" width="32" xmlns="http://www.w3.org/2000/svg"><path d="m30.689 15.027c-.358-.445-.484-1.039-.339-1.588.779-2.945-.419-6.033-2.98-7.684-2.226-1.435-5.032-1.499-7.325-.168-.224.13-.3.417-.17.641s.417.3.641.17c1.986-1.154 4.417-1.098 6.346.145 2.219 1.431 3.256 4.105 2.581 6.656-.221.836-.029 1.739.515 2.415 1.352 1.682 1.474 4.032.303 5.847-1.448 2.245-3.753 2.284-3.906 2.284-.002 0-2.085.153-4.731.978-1.858.579-3.399 1.295-4.665 2.041.705-1.277 1.531-2.795 2.357-4.358 1.59-.749 3.632-1.407 5.994-1.492.259-.009.461-.227.451-.485s-.227-.46-.485-.452c-2.023.073-3.814.544-5.27 1.111.67-1.291 1.317-2.576 1.875-3.748.83-.258 1.965-.503 3.36-.547.259-.008.462-.225.454-.483s-.224-.462-.483-.454c-.918.029-1.735.138-2.448.287.52-.773.972-1.839.991-3.222.035-2.564-1.568-4.852-3.988-5.694-.539-.188-.962-.624-1.13-1.167-.902-2.91-3.555-4.892-6.602-4.934-1.253-.017-2.487.301-3.569.92-.225.129-.303.415-.174.639s.415.303.64.174c.937-.536 2.003-.811 3.091-.796 2.64.036 4.938 1.753 5.719 4.274.256.826.898 1.49 1.717 1.775 2.038.709 3.388 2.636 3.359 4.795-.037 2.703-2.016 3.957-2.104 4.011-.009.005-1.682 1.233-3.488 3.336-1.268 1.477-2.195 2.901-2.872 4.205-.079-1.43-.184-3.159-.314-4.938.953-1.483 2.336-3.129 4.29-4.452.214-.145.271-.437.125-.651s-.437-.271-.651-.125c-1.677 1.135-2.945 2.485-3.879 3.737-.075-.929-.156-1.852-.244-2.735-.051-.509-.102-.988-.154-1.438.59-.686 1.42-1.482 2.559-2.245.215-.144.273-.435.128-.65s-.435-.273-.65-.128c-.898.602-1.622 1.192-2.199 1.729-.091-.663-.183-1.236-.275-1.713-.265-1.365-.539-2.157-1.157-2.166-.003 0-.007 0-.01 0-.611 0-.905.783-1.206 2.134-.11.492-.221 1.088-.334 1.779-.557-.598-1.259-1.237-2.139-1.862-.211-.15-.504-.1-.654.111s-.1.504.111.654c1.138.808 1.947 1.64 2.497 2.314-.064.448-.128.925-.193 1.432-.112.881-.218 1.802-.318 2.728-.9-1.277-2.131-2.661-3.776-3.841-.21-.151-.503-.103-.654.108s-.103.503.108.654c1.919 1.377 3.257 3.057 4.168 4.563-.178 1.777-.33 3.503-.448 4.932-.844-1.732-1.871-3.192-2.757-4.282-1.748-2.151-3.355-3.401-3.37-3.412-.009-.006-.017-.012-.026-.018-.093-.061-2.03-1.368-1.994-4.066.029-2.159 1.431-4.049 3.487-4.703.827-.263 1.487-.908 1.765-1.728.272-.802.703-1.526 1.279-2.153.175-.191.163-.487-.028-.662s-.487-.163-.662.028c-.665.724-1.161 1.56-1.476 2.486-.183.538-.617.963-1.161 1.136-2.442.776-4.106 3.02-4.141 5.583-.042 3.076 2.095 4.644 2.4 4.851.188.146 6.008 4.776 7.218 11.459.169.933.95 1.631 1.883 1.703.315.175.662.262 1.008.262.552 0 1.099-.218 1.503-.639 4.719-4.911 12.158-5.538 12.353-5.553.362-.005 3.022-.137 4.683-2.713 1.389-2.155 1.244-4.945-.361-6.942zm-17.909 13.745c-.112.534-.587.914-1.132.909-.544-.007-1.009-.403-1.107-.94-.156-.861-.386-1.688-.665-2.474.177-2.302.534-6.621.991-10.355.465-3.801.83-5.337 1.049-5.958.201.626.525 2.172.887 5.984.355 3.746.596 8.076.71 10.381-.358.926-.587 1.755-.733 2.452zm.801.567c.05-.119.898-6.131 6.701-10.856-1.666 3.345-3.774 7.179-5.023 9.413-.67.502-1.225.994-1.679 1.444z"/></svg>