<svg height="32" viewBox="0 0 31 32" width="31" xmlns="http://www.w3.org/2000/svg"><path d="m20.977 12.814v6.119c0 2.997-2.429 5.426-5.426 5.426s-5.426-2.429-5.426-5.426v-6.119c0-2.997 2.429-5.426 5.426-5.426s5.426 2.429 5.426 5.426zm-12.237 0v6.119c.04 3.731 3.074 6.741 6.811 6.741s6.771-3.009 6.811-6.737v-.004-6.119c0-.021 0-.046 0-.071 0-3.762-3.05-6.812-6.812-6.812s-6.812 3.05-6.812 6.812v.075-.004zm-4.344-3.62c-.294-.084-.506-.351-.506-.667 0-.067.01-.132.027-.193l-.001.005c1.404-4.985 6.087-8.331 11.616-8.331 6.756 0 12.043 4.934 12.043 11.491v.023c0 .383-.31.693-.693.693s-.693-.31-.693-.693c0-.008 0-.016 0-.024v.001c0-5.771-4.649-10.106-10.66-10.106-4.924 0-9.048 2.949-10.282 7.322-.084.294-.351.506-.667.506-.066 0-.129-.009-.189-.026l.005.001zm12.529 19.091h-2.491c-1.027 0-1.859.832-1.859 1.859s.832 1.859 1.859 1.859h2.491c.019.001.042.001.064.001 1.027 0 1.859-.832 1.859-1.859s-.832-1.859-1.859-1.859c-.023 0-.045 0-.067.001h.003zm0 2.332h-2.491c-.253-.01-.455-.218-.455-.473s.201-.463.454-.473h.001 2.491c.262 0 .474.212.474.474s-.212.474-.474.474zm-11.038-8.379c.382 0 .693-.31.693-.692v-9.623s0 0 0-.001c0-.382-.31-.692-.692-.692h-.001-2.328c-1.94 0-3.56 1.342-3.56 3.068v4.876c0 1.726 1.619 3.068 3.56 3.068h2.328zm-.692-9.624v8.238h-1.636c-1.226 0-2.174-.785-2.174-1.682v-4.876c0-.898.948-1.683 2.174-1.683h1.636zm19.973-1.384c-.382 0-.692.31-.692.692v.001 9.623c0 .382.31.692.692.692h2.329c1.94 0 3.56-1.342 3.56-3.068v-4.876c0-1.726-1.619-3.068-3.56-3.068h-2.329zm.693 9.623v-8.238h1.636c1.226 0 2.174.785 2.174 1.683v4.876c0 .898-.948 1.682-2.174 1.682h-1.636zm-8.608 9.186v.001c0-.004 0-.009 0-.013 0-.378.303-.685.68-.692 2.301-.041 6.323-2.59 7.694-5.364l.002-.004c.114-.227.348-.382.619-.382.382 0 .693.31.693.693 0 .112-.026.217-.072.307-1.597 3.239-6.095 6.085-8.911 6.136h.001c-.004 0-.008 0-.013 0-.378 0-.686-.303-.693-.681z" fill="#c6a07a"/></svg>