<svg width="46" height="46" viewBox="0 0 46 46" fill="none" xmlns="http://www.w3.org/2000/svg">
<path d="M26.6916 32.0831L33.5641 21.0324C33.5865 20.9967 33.6053 20.9591 33.62 20.9201C34.8043 18.9942 35.432 16.7779 35.4334 14.517C35.4334 7.74577 29.9245 2.23694 23.1533 2.23694C16.3821 2.23694 10.8728 7.74577 10.8728 14.517C10.8728 16.7745 11.5003 18.9862 12.688 20.9229C12.7017 20.9568 12.7178 20.9898 12.737 21.0219L19.3629 32.1106C14.2194 32.8376 10.837 34.9526 10.837 37.5181C10.837 40.697 16.2391 43.1865 23.135 43.1865C30.0309 43.1865 35.4329 40.6966 35.4329 37.5181C35.4334 34.9407 31.8933 32.7785 26.6916 32.0831ZM13.9224 20.3036C12.8301 18.5711 12.2496 16.5651 12.2479 14.517C12.2479 8.50394 17.1398 3.61208 23.1533 3.61208C29.1664 3.61208 34.0582 8.50394 34.0582 14.517C34.0582 16.56 33.4793 18.5608 32.3842 20.3036C32.3613 20.3403 32.3425 20.3783 32.3274 20.4177L25.0666 32.0914C24.9575 32.2587 24.9359 32.2967 24.8026 32.5158L22.969 35.4641L13.9838 20.4274C13.9675 20.3842 13.947 20.3427 13.9224 20.3036ZM23.1354 41.8113C16.6984 41.8113 12.2126 39.5483 12.2126 37.5181C12.2126 35.6754 15.5909 33.9391 20.1349 33.4014L22.3672 37.1377C22.4905 37.3435 22.7114 37.4705 22.9512 37.4723H22.9571C23.1946 37.4723 23.4155 37.3495 23.5411 37.1478L25.888 33.3744C30.5044 33.8745 34.0578 35.6548 34.0578 37.5181C34.0582 39.5488 29.5725 41.8113 23.1354 41.8113Z" fill="#5C9963"/>
<path d="M27.6005 14.517C27.6005 12.055 25.5974 10.0519 23.1354 10.0519C20.6734 10.0519 18.6703 12.055 18.6703 14.517C18.6703 16.9789 20.6734 18.9821 23.1354 18.9821C25.5974 18.9821 27.6005 16.9789 27.6005 14.517ZM20.0454 14.517C20.0454 12.8132 21.4316 11.427 23.1354 11.427C24.8392 11.427 26.2253 12.8132 26.2253 14.517C26.2253 16.2208 24.8397 17.6069 23.1354 17.6069C21.4311 17.6069 20.0454 16.2208 20.0454 14.517Z" fill="#5C9963"/>
</svg>
