<svg width="46" height="46" viewBox="0 0 46 46" fill="none" xmlns="http://www.w3.org/2000/svg">
<path d="M42.6703 34.9393C42.6919 34.8728 42.7066 34.8027 42.7066 34.7289V10.3767C42.7066 10.3024 42.6919 10.2318 42.6699 10.1649C42.6667 10.1557 42.6648 10.1466 42.6612 10.1374C42.6321 10.0601 42.5892 9.98862 42.5347 9.92656C42.531 9.92243 42.5305 9.91739 42.5269 9.91326C42.5246 9.91097 42.5218 9.91005 42.5195 9.90776C42.4616 9.84643 42.393 9.79625 42.3169 9.75971C42.311 9.75696 42.3064 9.75329 42.3004 9.75054C42.2263 9.71792 42.147 9.69883 42.0662 9.69416C42.058 9.6937 42.0502 9.69187 42.0419 9.69187C42.0341 9.69141 42.0272 9.68958 42.0195 9.68958H3.88016C3.87237 9.68958 3.86504 9.69141 3.85724 9.69187L3.83524 9.69416C3.75331 9.6989 3.67289 9.71831 3.5978 9.75146C3.59322 9.75329 3.58955 9.7565 3.58497 9.75833C3.50704 9.79546 3.43783 9.84588 3.37961 9.90822C3.37732 9.91051 3.37457 9.91097 3.37228 9.91326C3.36861 9.91693 3.36816 9.92197 3.36449 9.9261C3.30978 9.98831 3.26677 10.0599 3.23752 10.1374C3.23385 10.1466 3.23202 10.1557 3.22881 10.1654C3.20681 10.2323 3.19214 10.3029 3.19214 10.3771V34.7298C3.19214 34.805 3.20727 34.8765 3.22973 34.9443L3.23798 34.9714C3.26759 35.0492 3.31108 35.1209 3.36632 35.1831C3.36953 35.1868 3.37045 35.1914 3.37366 35.1951C3.37641 35.1983 3.38007 35.2001 3.38328 35.2033C3.40574 35.2267 3.43049 35.2473 3.45616 35.2675C3.46762 35.2762 3.47771 35.2867 3.48963 35.295C3.51988 35.3161 3.55242 35.333 3.58588 35.3486C3.59414 35.3523 3.60147 35.3582 3.60972 35.3615C3.69269 35.3968 3.7839 35.4169 3.8797 35.4169H42.0185C42.1143 35.4169 42.2056 35.3972 42.2885 35.3615C42.3014 35.356 42.3133 35.3477 42.3256 35.3413C42.3541 35.3271 42.3825 35.3124 42.4086 35.2945C42.4224 35.2849 42.4347 35.2725 42.448 35.262C42.4714 35.2432 42.4943 35.2244 42.5145 35.2029L42.526 35.1928C42.5296 35.1887 42.5305 35.1831 42.5342 35.179C42.5884 35.1172 42.6311 35.046 42.6603 34.9691C42.6648 34.959 42.6671 34.9494 42.6703 34.9393ZM4.56773 11.9361L16.1404 22.5067L4.56773 33.1617V11.9361ZM28.2869 21.9888C28.2393 22.0199 28.1888 22.0461 28.149 22.0901C28.1338 22.1066 28.1288 22.1281 28.1155 22.1455L22.9496 26.8641L5.65225 11.0642H40.2469L28.2869 21.9888ZM17.1598 23.4377L22.4857 28.3024C22.6122 28.4185 22.7777 28.4829 22.9493 28.4829C23.121 28.4829 23.2865 28.4185 23.413 28.3024L28.6729 23.4982L40.2437 34.0418H5.64217L17.1598 23.4377ZM29.6928 22.5668L41.3314 11.9361V33.1727L29.6928 22.5668Z" fill="#5C9963"/>
</svg>
