<svg height="32" viewBox="0 0 32 32" width="32" xmlns="http://www.w3.org/2000/svg"><path d="m16.055 3.379h5.429c.262 0 .475-.213.475-.475s-.213-.475-.475-.475h-5.429c-.262 0-.475.213-.475.475s.213.475.475.475z"/><path d="m25.528 3.645c.155-.225.241-.471.241-.741 0-2.292-6.105-2.904-9.713-2.904s-9.713.612-9.713 2.904c0 .27.086.516.241.741-.601.578-1.25 1.372-1.25 2.109v21.223c0 .552.338 1.041 1.009 1.465v1.004c0 2.292 6.106 2.903 9.714 2.903s9.713-.611 9.713-2.903v-1.004c.67-.423 1.009-.913 1.009-1.465v-21.223c0-.737-.649-1.531-1.25-2.109zm-18.928 23.332v-21.223c0-.146.247-.634.976-1.305 1.972 1.039 5.876 1.357 8.48 1.357s6.507-.319 8.479-1.357c.729.671.976 1.158.976 1.305v21.223c0 .109-.44.66-2.475 1.169-1.857.464-4.335.72-6.98.72s-5.124-.256-6.98-.72c-2.035-.509-2.475-1.06-2.475-1.169zm3.391-25.113c1.643-.385 3.796-.597 6.065-.597s4.422.212 6.064.597c1.786.419 2.321.891 2.379 1.04-.018.045-.081.121-.21.217-.09.062 0 0-.09.062-.326.212-.954.497-2.079.76-1.642.385-3.796.597-6.064.597s-4.422-.212-6.064-.597c-1.125-.264-1.754-.549-2.08-.761-.09-.062 0 0-.09-.062-.129-.095-.192-.171-.21-.217.058-.148.594-.621 2.38-1.04zm14.512 27.572c-.037.136-.555.621-2.383 1.049-1.642.385-3.796.597-6.064.597s-4.422-.212-6.064-.597c-1.828-.428-2.346-.913-2.382-1.039v-.415c.347.123.734.237 1.159.344 1.954.489 4.542.758 7.287.758s5.333-.269 7.287-.758c.426-.106.812-.221 1.16-.344z"/></svg>