<svg height="32" viewBox="0 0 32 32" width="32" xmlns="http://www.w3.org/2000/svg"><path d="m15.475 5.59c-.251.321-6.141 7.926-6.141 13.038 0 3.468 2.641 6.296 6 6.638v2.068c0 .369.298.667.667.667s.667-.298.667-.667v-2.068c3.359-.342 6-3.17 6-6.638 0-5.112-5.891-12.717-6.141-13.038-.253-.324-.798-.324-1.051 0zm-.142 18.342c-2.624-.335-4.667-2.572-4.667-5.305 0-.403.052-.83.131-1.269l4.536 3.629zm0-4.652-4.176-3.342c.294-.925.695-1.878 1.154-2.811l3.022 2.519zm0-5.37-2.391-1.993c.817-1.493 1.703-2.86 2.391-3.858zm1.334-5.851c.688.998 1.574 2.365 2.391 3.858l-2.391 1.993zm0 7.587 3.022-2.519c.459.933.86 1.886 1.154 2.811l-4.176 3.341v-3.634zm0 5.341 4.535-3.629c.079.439.131.866.131 1.269 0 2.732-2.043 4.97-4.667 5.304v-2.945z"/><path d="m30.923 18.481c.505-.713 1.077-1.521 1.077-2.481s-.572-1.768-1.077-2.481c-.331-.468-.645-.91-.753-1.316-.116-.436-.066-.993-.013-1.583.081-.896.163-1.823-.299-2.622-.469-.811-1.359-1.221-2.144-1.583-.532-.245-1.034-.477-1.343-.786s-.54-.812-.786-1.343c-.362-.785-.772-1.675-1.583-2.144-.8-.463-1.727-.379-2.622-.3-.591.052-1.147.102-1.583-.013-.407-.109-.849-.422-1.317-.753-.713-.505-1.521-1.077-2.481-1.077s-1.768.572-2.481 1.077c-.468.331-.91.645-1.316.753-.437.115-.994.065-1.583.013-.895-.08-1.822-.164-2.622.299-.811.469-1.221 1.359-1.583 2.144-.245.532-.477 1.034-.786 1.343s-.812.54-1.343.786c-.785.362-1.675.772-2.144 1.583-.462.799-.38 1.726-.3 2.622.053.59.103 1.148-.013 1.583-.109.407-.422.849-.753 1.317-.505.713-1.077 1.521-1.077 2.481s.572 1.768 1.077 2.481c.331.468.645.91.753 1.316.116.436.066.993.013 1.583-.081.896-.163 1.823.299 2.622.469.811 1.359 1.221 2.144 1.583.532.245 1.034.477 1.343.786s.54.812.786 1.343c.362.785.772 1.675 1.583 2.144.8.462 1.726.379 2.622.3.589-.054 1.146-.104 1.583.013.407.109.849.422 1.317.753.713.505 1.521 1.077 2.481 1.077s1.768-.572 2.481-1.077c.468-.331.91-.645 1.316-.753.434-.117.993-.067 1.583-.013.895.081 1.822.165 2.622-.299.811-.469 1.221-1.359 1.583-2.144.245-.532.477-1.034.786-1.343s.812-.54 1.343-.786c.785-.362 1.675-.772 2.144-1.583.462-.799.38-1.726.3-2.622-.053-.59-.103-1.148.013-1.583.109-.407.422-.849.753-1.317zm-1.088-.771c-.385.544-.783 1.106-.953 1.743-.177.663-.115 1.367-.053 2.046.064.721.126 1.402-.125 1.835-.258.445-.885.734-1.548 1.04-.615.283-1.25.576-1.728 1.054s-.771 1.113-1.054 1.728c-.305.663-.594 1.29-1.04 1.548-.434.251-1.115.189-1.835.124-.681-.062-1.383-.125-2.047.053-.637.171-1.199.568-1.743.953-.604.428-1.175.831-1.71.831s-1.106-.404-1.71-.831c-.544-.385-1.106-.783-1.743-.953-.325-.087-.659-.116-.996-.116-.351 0-.703.031-1.05.063-.722.065-1.402.126-1.835-.125-.445-.258-.734-.885-1.04-1.548-.283-.615-.576-1.25-1.054-1.728s-1.113-.771-1.728-1.054c-.663-.305-1.29-.594-1.548-1.04-.251-.433-.189-1.114-.124-1.835.061-.68.124-1.383-.053-2.047-.171-.637-.568-1.199-.953-1.743-.428-.604-.831-1.175-.831-1.71s.404-1.106.831-1.71c.385-.544.783-1.106.953-1.743.177-.663.115-1.367.053-2.046-.064-.721-.126-1.402.125-1.835.258-.445.885-.734 1.548-1.04.615-.283 1.25-.576 1.728-1.054s.771-1.113 1.054-1.728c.305-.663.594-1.29 1.04-1.548.432-.251 1.113-.191 1.835-.124.679.061 1.381.124 2.047-.053.637-.171 1.199-.568 1.743-.953.604-.428 1.175-.831 1.71-.831s1.106.404 1.71.831c.544.385 1.106.783 1.743.953.663.178 1.365.115 2.046.053.723-.063 1.403-.125 1.835.125.445.258.734.885 1.04 1.548.283.615.576 1.25 1.054 1.728s1.113.771 1.728 1.054c.663.305 1.29.594 1.548 1.04.251.433.189 1.114.124 1.835-.061.68-.124 1.383.053 2.047.171.637.568 1.199.953 1.743.428.604.831 1.175.831 1.71s-.404 1.106-.831 1.71z"/></svg>