<svg fill="none" height="48" viewBox="0 0 48 48" width="48" xmlns="http://www.w3.org/2000/svg"><g fill="#5c9963"><path d="m21.75 33.7125v-8.9625c0-.1989-.079-.3897-.2196-.5303-.1407-.1407-.3314-.2197-.5304-.2197-4.5806 0-5.2228 7.8593-5.2479 8.1937-.0111.1485.0221.2969.0956.4263.0735.1295.1838.2341.3169.3007l1.0854.5428v.2494l-.5812 5.8132c-.0313.3128.0033.6287.1016.9273s.258.5733.4689.8063c.211.2331.4684.4194.7557.5469s.5982.1934.9125.1934h1.185c.3144 0 .6252-.0659.9126-.1934.2873-.1275.5447-.3138.7556-.5469.211-.233.3707-.5077.469-.8063s.1329-.6145.1016-.9273zm-4.4485-1.9003c.13-1.0517.3612-2.0883.6905-3.0955.5764-1.6961 1.3337-2.7282 2.258-3.08v7.3633h-1.5c0-.1393-.0388-.2758-.112-.3943-.0732-.1184-.178-.2142-.3025-.2765zm3.3469 8.4411c-.07.078-.1557.1404-.2515.1829-.0958.0426-.1995.0643-.3044.0638h-1.185c-.1048 0-.2084-.0219-.3043-.0645-.0958-.0425-.1816-.1046-.2519-.1823-.0704-.0778-.1236-.1694-.1564-.269-.0327-.0996-.0442-.2049-.0337-.3092l.5176-5.175h1.6425l.5176 5.175c.011.1044-.0002.2099-.033.3095-.0328.0997-.0864.1913-.1572.2688z"/><path d="m45.75.75h-6c-.1989 0-.3897.079018-.5303.21967-.1407.14065-.2197.33142-.2197.53033v.75h-15.6579c-.6781.00047-1.3452.17058-1.9407.49481l-7.3427 4.00519h-8.8087c-1.26169 0-2.25 1.31775-2.25 3 0 1.5701.86109 2.8219 2.00166 2.9823l-3.38138 11.4469c-.003.0102-.00581.0205-.00844.0307-.07424.2974-.1118.6028-.11184.9094v21.3807c0 .1989.07902.3897.21967.5303.14065.1407.33142.2197.53033.2197h33.75c.1989 0 .3897-.079.5303-.2197.1407-.1406.2197-.3314.2197-.5303v-21.318c.0001-.3582-.0513-.7145-.1524-1.0582l-3.1249-10.6245c1.0176-.0074 1.9953-.397 2.7392-1.0915.7439-.6944 1.1997-1.6431 1.2769-2.6578h1.5112v1.5c0 .1989.079.3897.2197.5303.1406.1407.3314.2197.5303.2197h6c.1989 0 .3897-.079.5303-.2197.1407-.1406.2197-.3314.2197-.5303v-9.75c0-.19891-.079-.38968-.2197-.53033-.1406-.140652-.3314-.21967-.5303-.21967zm-41.25 9c0-.91566.44419-1.5.75-1.5h21.4394l-3 3h-18.4394c-.30581 0-.75-.5843-.75-1.5zm23.3618 14.46c-.0742.2974-.1118.6028-.1118.9094v20.6306h-24.75v-20.6307c.00007-.179.02144-.3574.06366-.5314l3.49678-11.8379h15.77206c-.3916.6615-.5402 1.4388-.4204 2.1981.1199.7592.5007 1.453 1.0769 1.9618.5762.5087 1.3117.8007 2.08.8256s1.5212-.2189 2.1291-.6893l3.6082-2.8066-2.936 9.9396c-.003.0103-.0058.0206-.0085.0308zm4.3882 19.6007 1.9393 1.9393h-3.8786zm2.9086-19.2633c.0607.2061.0914.4198.0914.6346v19.5073l-2.25-2.25v-16.1893c0-.1989-.079-.3897-.2197-.5303-.1406-.1407-.3314-.2197-.5303-.2197s-.3897.079-.5303.2197c-.1407.1406-.2197.3314-.2197.5303v16.1894l-2.25 2.25v-19.5701c.0001-.179.0214-.3574.0637-.5314l2.9343-9.9352zm3.8414-16.2974h-1.8025c-.3175.00037-.6219.12665-.8464.35114-.2244.22449-.3507.52885-.3511.84633-.0008.67673-.2699 1.32553-.7485 1.80403-.4785.4786-1.1273.7477-1.804.7485h-1.8437c-.234.0004-.4612.0784-.6461.2217l-4.6807 3.6408c-.362.2818-.8179.415-1.2747.3724s-.8802-.2578-1.1838-.6017c-.3036-.344-.4647-.7907-.4503-1.2493.0143-.4586.203-.8944.5276-1.2187l5.1345-5.13457c.1049-.10487.1765-.23853.2055-.38406s.0141-.29639-.0426-.43349c-.0568-.1371-.153-.25428-.2764-.33671-.1233-.08244-.2684-.12641-.4168-.12637h-11.3087l4.9285-2.68837c.3751-.20422.7952-.31134 1.2223-.31163h15.6579zm6 2.25h-4.5v-8.25h4.5z"/><path d="m15 24.75c0-.1989-.079-.3897-.2197-.5303-.1406-.1407-.3314-.2197-.5303-.2197s-.3897.079-.5303.2197c-.1407.1406-.2197.3314-.2197.5303v2.25h-1.5v-2.25c0-.1989-.079-.3897-.2197-.5303-.1406-.1407-.3314-.2197-.5303-.2197s-.3897.079-.5303.2197c-.1407.1406-.2197.3314-.2197.5303v2.25h-1.5v-2.25c0-.1989-.07902-.3897-.21967-.5303-.14065-.1407-.33142-.2197-.53033-.2197s-.38968.079-.53033.2197c-.14065.1406-.21967.3314-.21967.5303v3h.00141c-.00052.1163.02612.2312.07781.3354l1.40803 2.8162-.62053 8.6881c-.02202.3082.01968.6176.1225.909.10281.2914.26453.5584.47509.7846.21055.2261.46543.4064.74873.5297.28331.1234.58896.187.89796.187h1.278c.309 0 .6146-.0636.898-.187.2833-.1233.5381-.3036.7487-.5297.2105-.2262.3723-.4932.4751-.7846s.1445-.6008.1225-.909l-.6205-8.6881 1.408-2.8162c.0517-.1042.0783-.2191.0778-.3354h.0014zm-1.9635 3.75-.75 1.5h-2.073l-.75-1.5zm-.5985 11.761c-.0699.0758-.1548.1362-.2493.1773-.0946.0412-.1966.0622-.2997.0617h-1.278c-.103 0-.2049-.0212-.2993-.0623s-.1794-.1012-.2496-.1766c-.07017-.0753-.12408-.1644-.15836-.2615s-.04819-.2002-.04086-.3029l.58542-8.1967h1.6032l.5854 8.1967c.0079.1027-.0058.2059-.04.3031-.0343.0971-.0884.1861-.1589.2612z"/></g></svg>