<svg height="32" viewBox="0 0 32 32" width="32" xmlns="http://www.w3.org/2000/svg"><path d="m.5 8h5.5v5.5c0 .275.225.5.5.5h1c.275 0 .5-.225.5-.5v-5.5h5.5c.275 0 .5-.225.5-.5v-1c0-.275-.225-.5-.5-.5h-5.5v-5.5c0-.275-.225-.5-.5-.5h-1c-.275 0-.5.225-.5.5v5.5h-5.5c-.275 0-.5.225-.5.5v1c0 .275.225.5.5.5zm29.988-6.494-6.3-1.456c-.919-.212-1.863.263-2.238 1.131l-2.906 6.781c-.344.794-.113 1.731.556 2.281l3.369 2.756c-2.125 4.325-5.644 7.85-9.975 9.975l-2.756-3.369c-.55-.669-1.488-.9-2.281-.556l-6.775 2.906c-.869.375-1.344 1.313-1.131 2.238l1.45 6.3c.206.881.994 1.506 1.906 1.506 15.762 0 28.594-12.762 28.594-28.594 0-.913-.625-1.7-1.512-1.9zm-27.044 28.494-1.438-6.225 6.713-2.875 3.719 4.55c6.475-3.038 9.981-6.556 13.006-13.006l-4.55-3.719 2.875-6.713 6.225 1.438c-.012 14.656-11.894 26.531-26.55 26.55z"/></svg>