<svg width="46" height="46" viewBox="0 0 46 46" fill="none" xmlns="http://www.w3.org/2000/svg">
<path d="M18.1125 39.2545C19.9345 40.2748 21.7291 40.7873 23.4008 40.7873C24.8003 40.7868 26.1135 40.4275 27.2824 39.706L31.5907 37.0483C31.6676 37.0008 31.7344 36.9388 31.7873 36.8655C31.8402 36.7923 31.8781 36.7093 31.8989 36.6214C31.9198 36.5335 31.923 36.4424 31.9086 36.3532C31.8942 36.264 31.8623 36.1786 31.8149 36.1017L28.0804 30.0492C27.9844 29.8942 27.8309 29.7836 27.6534 29.7416C27.476 29.6997 27.2891 29.7299 27.1339 29.8255L22.793 32.5048C22.1256 32.9164 21.2693 33.048 20.4456 32.8669C19.6219 32.6854 18.9188 32.2077 18.5163 31.555L12.6165 21.9936C11.7634 20.6111 12.1934 18.7923 13.5749 17.9392L13.5754 17.9388L18.0808 15.1573C18.2359 15.0615 18.3466 14.908 18.3886 14.7306C18.4305 14.5532 18.4003 14.3663 18.3045 14.2112L14.5696 8.16011C14.5223 8.08319 14.4603 8.01635 14.3871 7.96344C14.3139 7.91052 14.231 7.87257 14.1431 7.85175C14.0552 7.83093 13.9641 7.82765 13.8749 7.8421C13.7858 7.85655 13.7003 7.88845 13.6235 7.93596L9.12176 10.7147C4.10431 13.8115 4.28033 21.9409 9.55081 30.4842C11.9669 34.4016 15.0078 37.5163 18.1125 39.2545ZM9.84463 11.8845L13.761 9.46742L16.774 14.3483L12.8534 16.7685L12.8516 16.7699C10.8265 18.0217 10.1957 20.6882 11.4467 22.7151L17.3465 32.276C17.9429 33.2437 18.9651 33.9482 20.1504 34.2095C21.3198 34.4657 22.5469 34.2718 23.5154 33.6741L27.2709 31.3561L30.2834 36.2378L26.56 38.5348C23.8409 40.2125 20.8307 39.1994 18.7845 38.0539C15.8806 36.4276 13.0166 33.483 10.7211 29.7618C5.87596 21.9079 5.51567 14.5564 9.84463 11.8845Z" fill="#5C9963"/>
<path d="M22.7266 15.3796C24.9515 15.5111 26.9207 16.6543 28.13 18.5167C29.286 20.2916 29.5642 22.4666 28.8927 24.4844C28.8582 24.5877 28.8487 24.6978 28.8651 24.8055C28.8815 24.9132 28.9233 25.0155 28.987 25.1038C29.0507 25.1922 29.1346 25.2641 29.2316 25.3137C29.3286 25.3632 29.436 25.389 29.545 25.3888C29.8333 25.3888 30.1015 25.2068 30.1973 24.9185C31.0022 22.501 30.6685 19.8937 29.2828 17.7668C27.8554 15.5675 25.4342 14.1617 22.8077 14.0063C22.4249 13.9902 22.1032 14.273 22.0807 14.6521C22.0753 14.7423 22.0877 14.8327 22.1173 14.918C22.1468 15.0034 22.1929 15.0821 22.2529 15.1497C22.3129 15.2173 22.3856 15.2723 22.4668 15.3118C22.5481 15.3512 22.6364 15.3743 22.7266 15.3796Z" fill="#5C9963"/>
<path d="M23.6892 10.276C27.292 10.6899 30.4902 12.6669 32.4635 15.6991C33.4084 17.1511 34.0301 18.7893 34.2865 20.5027C34.5429 22.216 34.428 23.9644 33.9496 25.6295C33.92 25.7319 33.9146 25.8397 33.9339 25.9445C33.9532 26.0493 33.9967 26.1482 34.0608 26.2333C34.1249 26.3185 34.208 26.3875 34.3034 26.435C34.3988 26.4824 34.504 26.507 34.6106 26.5068C34.7597 26.5066 34.9047 26.458 35.0238 26.3682C35.1428 26.2784 35.2295 26.1523 35.2706 26.009C35.8034 24.1546 35.9314 22.2073 35.6459 20.2992C35.3604 18.391 34.6681 16.5664 33.6159 14.9492C31.4184 11.5723 27.8577 9.37112 23.8459 8.90999C23.476 8.86644 23.1281 9.13735 23.0846 9.5146C23.041 9.89184 23.3115 10.2324 23.6892 10.276Z" fill="#5C9963"/>
<path d="M24.6293 5.78112C26.9931 6.10921 29.2589 6.94157 31.273 8.22182C33.2871 9.50207 35.0024 11.2003 36.3029 13.2014C37.5793 15.1659 38.4281 17.3769 38.794 19.6909C39.1599 22.0049 39.0347 24.37 38.4265 26.6325C38.3991 26.7344 38.3955 26.8413 38.416 26.9449C38.4366 27.0485 38.4807 27.146 38.545 27.2297C38.6092 27.3135 38.6919 27.3814 38.7867 27.428C38.8814 27.4747 38.9856 27.4989 39.0912 27.4988C39.3942 27.4988 39.6724 27.2971 39.7545 26.99C40.4128 24.541 40.5484 21.9809 40.1523 19.4761C39.7563 16.9713 38.8375 14.5779 37.4557 12.4515C36.0479 10.2855 34.1911 8.44728 32.0109 7.06146C29.8308 5.67565 27.3783 4.77457 24.8195 4.41927C24.639 4.39469 24.4561 4.44256 24.3108 4.55241C24.1654 4.66226 24.0695 4.82517 24.0439 5.00554C24.0314 5.09491 24.0365 5.18587 24.0592 5.27323C24.0818 5.36059 24.1214 5.44264 24.1758 5.51467C24.2302 5.5867 24.2982 5.64731 24.376 5.69303C24.4538 5.73875 24.5399 5.76869 24.6293 5.78112Z" fill="#5C9963"/>
</svg>
