<svg height="32" viewBox="0 0 28 32" width="28" xmlns="http://www.w3.org/2000/svg"><path d="m25 4c.55 0 1 .45 1 1v22c0 .55-.45 1-1 1h-22c-.55 0-1-.45-1-1v-22c0-.55.45-1 1-1zm0-2h-22c-1.656 0-3 1.344-3 3v22c0 1.656 1.344 3 3 3h22c1.656 0 3-1.344 3-3v-22c0-1.656-1.344-3-3-3zm-3.75 12.875h-6.125v-6.125c0-.412-.338-.75-.75-.75h-.75c-.412 0-.75.338-.75.75v6.125h-6.125c-.412 0-.75.338-.75.75v.75c0 .413.338.75.75.75h6.125v6.125c0 .413.338.75.75.75h.75c.412 0 .75-.337.75-.75v-6.125h6.125c.413 0 .75-.337.75-.75v-.75c0-.412-.337-.75-.75-.75z"/></svg>