<!-- Generated by IcoMoon.io -->
<svg version="1.1" xmlns="http://www.w3.org/2000/svg" width="32" height="32" viewBox="0 0 32 32">
<title>rocket</title>
<path fill="#5c9963" d="M15.815 25.421c-0.171 0-0.341-0.065-0.472-0.195l-8.569-8.569c-0.251-0.251-0.261-0.652-0.027-0.916l6.423-7.195c4.489-5.252 11.8-8.651 18.175-8.543 0.356 0.008 0.643 0.295 0.651 0.651 0.148 6.379-3.289 13.685-8.555 18.184l-7.183 6.413c-0.125 0.113-0.285 0.169-0.443 0.169zM8.162 16.16l7.679 7.679 6.724-6.003c4.808-4.109 8.001-10.659 8.1-16.5-5.841 0.097-12.389 3.291-16.491 8.088z"></path>
<path fill="#5c9963" d="M18.368 30.301c-0.064 0-0.129-0.009-0.191-0.029-0.24-0.080-0.437-0.264-0.472-0.515l-0.915-6.383c-0.052-0.364 0.201-0.701 0.565-0.755 0.364-0.057 0.701 0.2 0.755 0.565l0.715 4.987c2.336-2.793 3.635-6.335 3.635-9.945 0-0.368 0.299-0.667 0.667-0.667s0.667 0.299 0.667 0.667c0 4.417-1.789 8.741-4.909 11.86-0.133 0.133-0.328 0.215-0.516 0.215z"></path>
<path fill="#5c9963" d="M8.722 15.216c-0.031 0-0.063-0.001-0.095-0.007l-6.383-0.915c-0.251-0.036-0.46-0.211-0.539-0.452-0.079-0.24-0.015-0.505 0.165-0.683 3.164-3.164 7.487-4.953 11.904-4.953 0.368 0 0.667 0.299 0.667 0.667s-0.299 0.667-0.667 0.667c-3.628 0-7.188 1.311-9.952 3.633l4.993 0.716c0.364 0.053 0.617 0.389 0.565 0.755-0.049 0.332-0.335 0.572-0.66 0.572z"></path>
<path fill="#5c9963" d="M22.844 12.488c-0.855 0-1.708-0.325-2.357-0.975-1.299-1.3-1.299-3.415 0-4.715 1.3-1.3 3.415-1.3 4.715 0 1.299 1.3 1.299 3.415 0 4.715-0.651 0.651-1.504 0.975-2.357 0.975zM22.844 7.157c-0.512 0-1.025 0.195-1.415 0.584-0.779 0.78-0.779 2.049 0 2.829 0.78 0.779 2.049 0.777 2.829 0 0.779-0.78 0.779-2.049 0-2.829-0.391-0.388-0.903-0.584-1.415-0.584zM24.729 11.043h0.013z"></path>
<path fill="#5c9963" d="M0.667 32c-0.175 0-0.344-0.068-0.472-0.195-0.173-0.173-0.237-0.428-0.167-0.663 0.219-0.729 2.177-7.175 3.604-8.601 1.607-1.607 4.221-1.608 5.828 0 1.607 1.607 1.607 4.221 0 5.828-1.427 1.427-7.872 3.385-8.601 3.604-0.064 0.017-0.128 0.027-0.192 0.027zM6.547 22.668c-0.715 0-1.428 0.272-1.972 0.815-0.769 0.771-2.049 4.212-2.895 6.837 2.624-0.845 6.067-2.125 6.836-2.895 1.087-1.087 1.087-2.856 0-3.943-0.543-0.543-1.256-0.815-1.969-0.815z"></path>
</svg>
