<svg height="32" viewBox="0 0 32 32" width="32" xmlns="http://www.w3.org/2000/svg"><path d="m14.214 4.16c-5.407.001-9.806 4.402-9.808 9.812.002 5.404 4.4 9.803 9.806 9.803 5.41 0 9.812-4.399 9.812-9.806-.002-5.409-4.402-9.809-9.809-9.809zm0-2.462c6.763 0 12.268 5.504 12.271 12.27 0 3.061-1.127 5.864-2.989 8.015l6.207 6.209c.481.48.481 1.259 0 1.74-.24.24-.555.361-.87.361s-.63-.121-.87-.361l-6.255-6.256c-2.075 1.604-4.676 2.56-7.496 2.56-6.761 0-12.265-5.503-12.267-12.265.002-6.767 5.506-12.272 12.27-12.273z"/></svg>