<svg fill="none" height="48" viewBox="0 0 48 48" width="48" xmlns="http://www.w3.org/2000/svg"><g fill="#5c9963"><path d="m41.0402 24.8c-.248.064-5.768 1.432-8.576 3.768-2.96-2.304-8.464-3.68-8.728-3.768-.2185-.0543-.4496-.0141-.6369.1107-.1873.1249-.3133.3228-.3471.5453-.048.32-1.192 7.888.936 11.024s6.16 4.544 9.08 2.648c1.2131-.8091 2.0449-2.077 2.304-3.512.056-.272-.368.224 3.008-3.144.2029-.2029.2821-.4987.2079-.7759-.0743-.2772-.2908-.4937-.568-.568s-.573.005-.7759.2079l-1.848 1.848c-.2077-1.2597-.7214-2.4491-1.496-3.464 1.928-1.536 5.36-2.648 6.96-3.112.288 2.4.528 6.92-.72 8.8-.6524.9955-1.5732 1.786-2.656 2.28-.3509.1495-.5475.5258-.4698.8992.0778.3734.4084.6399.7898.6368.504 0 2.4-1.024 3.664-2.92 2.064-3.088.896-10.496.848-10.808-.0239-.228-.1445-.4348-.3312-.5679s-.4215-.1798-.6448-.1281zm-8.328 12.24-3.296-3.952c-.183-.22-.4694-.3258-.7515-.2774-.282.0483-.5168.2435-.616.512-.0991.2684-.0475.5693.1355.7894l3.28 3.936c-2.032.952-4.8-.064-6.448-2.44-1.296-1.912-1.08-6.544-.8-9 2.44.696 6.928 2.296 8.232 4.208s1.664 4.472.264 6.224z"/><path d="m44.8 0h-41.6c-1.76731 0-3.2 1.43269-3.2 3.2v7.832c.00304759 1.7465.911464 3.3665 2.4 4.28v30.288c0 1.3255 1.07452 2.4 2.4 2.4h38.4c1.3255 0 2.4-1.0745 2.4-2.4v-30.288c1.4885-.9135 2.397-2.5335 2.4-4.28v-7.832c0-1.76731-1.4327-3.2-3.2-3.2zm-26.4 46.4h-10.4v-25.6h10.4zm25.6-.8c0 .4418-.3582.8-.8.8h-23.2v-25.6c0-.8837-.7163-1.6-1.6-1.6h-10.4c-.88366 0-1.6.7163-1.6 1.6v25.6h-1.6c-.44183 0-.8-.3582-.8-.8v-29.688c.104 0 .208.056.312.064 1.3434.1366 2.68218-.2991 3.688-1.2 1.82208 1.6297 4.5779 1.6297 6.4 0 1.8221 1.6297 4.5779 1.6297 6.4 0 1.8221 1.6297 4.5779 1.6297 6.4 0 1.8221 1.6297 4.5779 1.6297 6.4 0 1.8221 1.6297 4.5779 1.6297 6.4 0 .9987.9149 2.3404 1.3602 3.688 1.224.104 0 .208-.048.312-.064zm-.472-31.2c-1.1208.1113-2.2177-.3748-2.888-1.28-.1511-.2014-.3882-.32-.64-.32s-.4889.1186-.64.32c-.6043.8058-1.5528 1.28-2.56 1.28s-1.9557-.4742-2.56-1.28c-.1511-.2014-.3882-.32-.64-.32s-.4889.1186-.64.32c-.6043.8058-1.5528 1.28-2.56 1.28s-1.9557-.4742-2.56-1.28c-.1511-.2014-.3882-.32-.64-.32s-.4889.1186-.64.32c-.6043.8058-1.5528 1.28-2.56 1.28s-1.9557-.4742-2.56-1.28c-.1511-.2014-.3882-.32-.64-.32s-.4889.1186-.64.32c-.6043.8058-1.5528 1.28-2.56 1.28s-1.9557-.4742-2.56-1.28c-.1511-.2014-.3882-.32-.64-.32s-.4889.1186-.64.32c-.6043.8058-1.5528 1.28-2.56 1.28s-1.95567-.4742-2.56-1.28c-.15108-.2014-.38819-.32-.64-.32s-.48892.1186-.64.32c-.6703.9052-1.76715 1.3913-2.888 1.28-1.67523-.2277-2.91184-1.6778-2.872-3.368v-4.632h30.4c.4418 0 .8-.35817.8-.8s-.3582-.8-.8-.8h-30.4v-1.6c0-.88366.71634-1.6 1.6-1.6h41.6c.8837 0 1.6.71634 1.6 1.6v1.6h-8c-.4418 0-.8.35817-.8.8s.3582.8.8.8h8v4.632c.0398 1.6902-1.1968 3.1403-2.872 3.368z"/><path d="m14.4 32.8c1.3255 0 2.4-1.0745 2.4-2.4s-1.0745-2.4-2.4-2.4-2.4 1.0745-2.4 2.4 1.0745 2.4 2.4 2.4zm0-3.2c.4418 0 .8.3582.8.8s-.3582.8-.8.8-.8-.3582-.8-.8.3582-.8.8-.8z"/></g></svg>