<svg height="32" viewBox="0 0 32 32" width="32" xmlns="http://www.w3.org/2000/svg"><path d="m19.38 26.827c-.056.002-.111-.007-.163-.027s-.1-.05-.14-.088c-.04-.039-.073-.085-.095-.136s-.034-.106-.034-.162c-1.297-8.216-11.935-14.014-12.041-14.072-.101-.054-.177-.146-.21-.256s-.021-.228.033-.329.146-.177.256-.21.228-.021.329.033c2.037 1.152 3.949 2.51 5.708 4.053 2.698 2.359 6.065 6.125 6.782 10.675.003.022.005.045.005.067.001.116-.044.229-.124.313s-.19.134-.307.139z"/><path d="m11.737 21.801c-2.113 0-4.169-1.128-6.034-3.367-1.024-1.256-1.834-2.673-2.398-4.192-.699-1.787-1.497-3.534-2.388-5.232-.031-.058-.049-.123-.051-.19s.011-.132.038-.193c.027-.06.068-.114.119-.156s.112-.072.176-.087c1.806-.378 3.649-.554 5.495-.525 4.043.061 7.293 1.179 9.398 3.232.043.045 4.035 4.148.462 8.764-.021.028-.046.053-.073.074-1.575 1.249-3.175 1.871-4.742 1.871zm-9.791-12.684c.802 1.568 1.525 3.175 2.166 4.816.53 1.431 1.292 2.765 2.256 3.948 2.045 2.454 5.356 4.685 9.533 1.404 3.059-4.004-.275-7.434-.419-7.579-4.05-3.951-11.461-2.961-13.536-2.589z"/><path d="m19.38 26.846c-.115 0-.225-.046-.306-.127s-.127-.191-.127-.306v-.039c-.127-2.205-.057-6.573 1.845-10.804 1.244-2.813 3.255-5.22 5.802-6.944.047-.032.1-.054.156-.065s.113-.012.169-.001.109.033.156.064.088.072.12.119.054.1.065.156.012.113.001.169-.032.109-.064.156-.072.088-.119.12c-2.414 1.635-4.319 3.916-5.498 6.583-1.827 4.061-1.892 8.274-1.769 10.424v.064c0 .115-.045.224-.126.305s-.191.127-.305.127z"/><path d="m24.125 16.873c-1.076-.024-2.135-.273-3.109-.731-.015-.006-.029-.013-.043-.022-.027-.016-2.737-1.639-1.647-5.128.493-1.478 1.503-2.727 2.845-3.52 2.554-1.613 5.536-2.415 8.554-2.3.066.003.131.022.189.054s.108.078.145.133c.038.055.062.117.072.183s.004.133-.017.196c-.338 1.164-.553 2.36-.641 3.568-.094 1.701-.631 3.349-1.557 4.78-.951 1.395-2.478 2.787-4.792 2.787zm-2.734-1.511c2.868 1.257 5.16.664 6.81-1.763.841-1.307 1.327-2.811 1.41-4.363.085-1.085.261-2.161.525-3.217-2.66.012-5.263.771-7.512 2.19-1.163.683-2.041 1.763-2.473 3.042-.845 2.704 1.041 3.986 1.24 4.112z"/><path d="m19.354 26.249c-.075 0-.148-.019-.213-.056s-.119-.09-.158-.154c-.038-.064-.059-.137-.061-.212s.016-.148.051-.214c.633-1.187 1.463-2.259 2.454-3.169.02-.018.041-.035.064-.048 1.22-1.087 2.714-1.819 4.321-2.115.111-.018.225.009.318.074s.155.164.176.275-.003.226-.066.319-.16.159-.27.183c-1.474.272-2.844.949-3.955 1.955-.017.016-.036.031-.055.043-.896.835-1.647 1.812-2.224 2.892-.037.069-.092.127-.159.167s-.144.061-.222.061z"/><path d="m24.026 24.37c-.506-.02-1.002-.148-1.454-.375s-.851-.548-1.17-.942c-.011-.012-.021-.024-.03-.037-.307-.472-.443-1.034-.387-1.594s.302-1.084.697-1.485c.586-.644 1.384-1.056 2.249-1.159 1.616-.24 3.267.017 4.735.735.059.03.111.073.151.126s.067.115.079.18.009.132-.009.196-.05.123-.094.172c-.4.477-.75.995-1.042 1.545-.425.832-1.06 1.539-1.841 2.051-.56.369-1.213.572-1.884.586zm-1.964-1.877c1.038 1.124 2.176 1.311 3.391.555.654-.433 1.185-1.028 1.539-1.728.237-.437.503-.857.797-1.257-1.189-.465-2.478-.612-3.741-.428-.658.075-1.267.385-1.715.872-.266.25-.439.583-.488.945s.027.729.217 1.041z"/></svg>