<svg height="32" viewBox="0 0 32 32" width="32" xmlns="http://www.w3.org/2000/svg"><path d="m32 10.515c0-.057-.011-.114-.033-.167s-.054-.101-.095-.142-.089-.073-.142-.095-.11-.033-.167-.033h-2.219v-1.53c-.001-.514-.205-1.006-.568-1.369s-.856-.568-1.369-.568h-5.604c-.287 0-.571.064-.83.187s-.488.303-.67.526c-.181-.223-.41-.402-.67-.526s-.543-.187-.83-.187h-5.604c-.287 0-.571.064-.83.187s-.488.303-.67.526c-.181-.223-.41-.402-.67-.526s-.543-.187-.83-.187h-5.604c-.514.001-1.006.205-1.369.568s-.568.856-.568 1.369v1.53h-2.219c-.116 0-.227.046-.309.128s-.128.193-.128.309c.003 3.998 1.4 7.869 3.951 10.947l1.053 1.268v2.223c0 .116.046.227.128.309s.193.128.309.128h21.117c.116 0 .227-.046.309-.128s.128-.193.128-.309v-2.223l1.053-1.268c2.551-3.078 3.948-6.95 3.951-10.947zm-10.198-3.031h5.604c.282 0 .552.112.751.311s.311.469.312.751v1.53h-7.729v-1.53c0-.282.112-.552.311-.751s.469-.311.751-.311zm-8.604 0h5.604c.282 0 .552.112.751.311s.311.469.311.751v1.53h-7.729v-1.53c0-.282.112-.552.312-.751s.469-.311.751-.312zm-9.667 1.063c0-.282.112-.552.312-.751s.469-.311.751-.312h5.604c.282 0 .552.112.751.311s.311.469.312.751v1.53h-7.729v-1.53zm22.59 15.969h-20.242v-1.506h20.242zm.232-2.381h-20.706l-1.022-1.232c-2.325-2.805-3.643-6.309-3.744-9.951h30.238c-.101 3.642-1.419 7.145-3.744 9.95z"/><path d="m16 12.622c-.776 0-1.534.23-2.179.661s-1.148 1.043-1.445 1.76-.375 1.505-.223 2.266c.151.761.525 1.46 1.073 2.008s1.247.922 2.008 1.073 1.549.074 2.266-.223 1.329-.799 1.76-1.445.661-1.403.661-2.179c-.001-1.04-.415-2.037-1.15-2.772s-1.732-1.149-2.772-1.15zm0 6.969c-.603 0-1.192-.179-1.693-.513s-.892-.811-1.122-1.367c-.231-.557-.291-1.169-.173-1.761s.408-1.134.834-1.56.969-.716 1.56-.834 1.204-.057 1.761.173c.557.231 1.033.621 1.367 1.122s.513 1.09.513 1.693c-.001.808-.322 1.582-.893 2.153s-1.346.892-2.153.893z"/><path d="m16.309 14.734c-.041-.041-.089-.073-.142-.095s-.11-.033-.167-.033-.114.011-.167.033-.101.054-.142.095l-1.5 1.5c-.082.082-.128.193-.128.309s.046.227.128.309l1.5 1.5c.082.082.193.128.309.128s.227-.046.309-.128l1.5-1.5c.041-.041.073-.089.095-.142s.033-.11.033-.167-.011-.114-.033-.167-.054-.101-.095-.142zm-.309 2.691-.881-.881.881-.881.881.882-.881.881z"/></svg>