<svg fill="none" height="148" viewBox="0 0 594 148" width="594" xmlns="http://www.w3.org/2000/svg" xmlns:xlink="http://www.w3.org/1999/xlink"><clipPath id="a"><path d="m0 0h594v148h-594z"/></clipPath><g clip-path="url(#a)"><g fill="#c0de00"><path d="m590.228 36.1649s12.478-23.8195-8.125-36.1649c0 0-7.4 15.686 8.125 36.1649z"/><path d="m480.104 51.5603s42.947-5.3739 40.19-44.15307c0 0-27.567 4.64767-40.19 44.15307z"/><path d="m115.057 35.2936s-25.3912-6.5358-32.5006 15.9764c0 0 16.5403 3.4858 32.5006-15.9764z"/><path d="m40.6253 61.8724s-1.7411-43.2817-40.6253-43.8626c0 .1452 2.32145 28.0314 40.6253 43.8626z"/></g><path d="m401.03 26.5791c-20.603-12.3455-43.092-16.84791-65.436-18.73603-20.458-1.88813-41.06-2.03337-61.518.58096-38.014 4.64767-77.043 18.15507-108.092 49.52697-23.215 23.529-38.595 55.191-48.751 90.194h3.627c7.98-27.014 19.007-51.9958 35.112-72.4747 26.987-34.4219 63.26-51.8508 99.387-59.4033 18.572-3.9215 37.433-5.2286 56.15-4.9382 21.038.2905 42.512 2.0334 63.115 8.5692 19.877 6.2454 38.593 17.8646 53.828 36.6006 13.348 16.4122 23.505 37.0363 30.904 59.2584 3.482 10.457 6.384 21.35 8.851 32.534h3.627c-.29-1.308-.58-2.615-.87-3.922-11.027-50.1079-33.807-96.1491-69.934-117.7899z" fill="#fff"/><path d="m356.342 120.404c-30.469-35.0026-73.706-44.7337-110.704-24.1096-19.007 10.6026-34.967 29.0476-46.284 51.7056h4.208c9.286-17.719 21.473-32.534 35.837-42.555 35.983-25.127 81.106-18.3007 112.3 15.976 7.11 7.843 13.639 16.848 19.442 26.579h4.498c-5.804-10.022-12.188-19.317-19.297-27.596z" fill="#fff"/><path d="m364.467 63.9059c-27.712-20.3337-59.487-28.0314-90.681-21.7861-31.05 6.1001-60.358 25.1266-84.153 52.4318-13.348 15.3954-24.955 33.4054-34.096 53.5934h4.207c22.925-48.9457 60.793-85.2558 102.724-98.3275 30.324-9.4406 62.099-5.5191 90.537 11.7645 28.438 17.4289 52.668 46.477 69.643 81.77.726 1.598 1.451 3.196 2.177 4.793h4.062c-15.525-35.148-38.014-64.7769-64.42-84.2391z" fill="#fff"/><path d="m262.033 130.281c-7.544 4.066-14.363 10.167-20.022 17.864h5.078c6.094-7.407 13.639-12.781 21.619-15.831 18.716-6.971 38.594 1.017 54.118 15.831h5.804c-3.627-3.921-7.545-7.552-11.607-10.602-16.831-12.636-36.998-16.993-54.99-7.262z" fill="#fff"/></g></svg>