<svg fill="none" height="339" viewBox="0 0 243 339" width="243" xmlns="http://www.w3.org/2000/svg" xmlns:xlink="http://www.w3.org/1999/xlink"><clipPath id="a"><path d="m0 0h243v339h-243z"/></clipPath><g clip-path="url(#a)"><path d="m16.6015 311.375c-8.81502-4.409-13.81018-14.548-14.69168-24.393s1.61608-19.691 4.11366-29.242c5.28902.882 9.84342 4.261 13.36942 8.376 9.2557 10.58 12.4879 27.038 5.5828 39.381-2.0568 3.673-5.4359 7.2-9.5496 6.906" fill="#79a316"/><path d="m17.0424 307.407c-9.99036-2.498-14.10403-13.519-14.83861-22.776-.73458-9.258 2.05683-18.368 4.70133-27.185-.44075.294-.8815.441-1.32225.735 9.25573 3.673 16.74853 10.139 21.15603 19.103 2.3506 4.702 2.9383 9.992 2.6445 15.135-.5877 6.906-5.5829 16.898-13.9571 14.4-1.3223-.441-2.0568 1.764-.5877 2.057 12.341 3.527 18.0708-12.784 16.8954-22.335-1.763-14.401-12.341-25.274-25.41655-30.417-.58766-.294-1.17533.147-1.32224.734-3.23217 10.727-6.02358 21.601-4.113668 32.916 1.469168 8.523 6.905078 17.339 15.720058 19.69 1.1753.441 1.763-1.763.4408-2.057z" fill="#45595b"/><path d="m7.34596 264.94c6.02354 13.372 10.13724 27.479 12.34104 41.879.1469 1.47 2.3506.882 2.2037-.588-2.2037-14.694-6.4643-28.948-12.63482-42.466-.44075-1.176-2.49758-.147-1.90992 1.175z" fill="#45595b"/><path d="m4.40775 282.427c3.81983 1.763 7.78655 3.232 11.75335 4.408 1.3222.441 2.0568-1.763.5876-2.057-3.9667-1.176-7.93346-2.645-11.75329-4.409-1.17533-.734-1.763 1.47-.58766 2.058z" fill="#45595b"/><path d="m17.9237 286.247c1.6161-3.38 3.3791-6.759 5.289-9.992.7346-1.176-1.1753-2.351-1.9099-1.176-1.9099 3.233-3.6729 6.613-5.289 9.993-.5877 1.322 1.3222 2.498 1.9099 1.175z" fill="#45595b"/><path d="m8.08028 296.974c3.67292 1.029 7.34582 1.763 11.16562 2.204 1.4692.147 1.4692-2.057 0-2.204-3.526-.441-7.052-1.029-10.57795-2.057-1.32225-.441-1.90992 1.763-.58767 2.057z" fill="#45595b"/><path d="m20.1276 298.443c2.6445-3.232 4.8483-6.612 6.6113-10.433.5876-1.322-1.3223-2.498-1.9099-1.175-1.6161 3.527-3.673 6.906-6.3175 9.992-.8815 1.029.5877 2.645 1.6161 1.616z" fill="#45595b"/><path d="m80.6572 181.77c3.3791.882 5.8766 3.527 8.0804 6.172 6.9051 8.228 11.9004 18.074 14.5444 28.36.147-1.323.441-2.645 1.176-3.674.587-1.175 1.763-2.057 3.085-2.057s2.644.735 3.379 1.91c.735 1.029 1.175 2.351 1.469 3.674 1.469 5.143 2.792 10.433 3.82 15.723 1.175-.588 2.351-1.176 3.673-1.323s2.791.441 3.379 1.617c.441.881.441 1.91.294 2.939-.588 9.698 3.967 19.543 1.763 28.948-2.351-6.319-8.374-10.433-14.398-13.372-2.057-.882-4.114-1.911-5.583-3.527-.441-.441-.734-.882-.881-1.469-.294-1.47 1.175-2.792 2.644-3.38s3.232-.735 4.261-1.91c-5.583-2.205-11.019-4.262-16.6018-6.466-1.0284-.441-2.3507-1.469-1.6161-2.351.2938-.441.8815-.441 1.4692-.588 2.2037-.294 4.4075-.441 6.6117-.735-1.029.147-4.2611-3.526-4.9957-4.114-1.9099-1.616-3.6729-3.38-5.4359-5.143-3.3791-3.527-6.6112-7.347-9.4026-11.315-4.4075-6.465-9.6965-15.87-6.9051-23.952.4407-1.175.8815-2.204 1.763-3.085 1.6161-1.617 4.4075-1.911 6.3174-.588" fill="#c0de00"/><path d="m135.31 247.307c-3.232-5.878-6.317-11.902-9.109-18.074-.587-1.47-1.175-3.38-.147-4.555 1.176-1.176 3.086-.735 4.702-.147-3.085-3.38-5.877-7.201-8.228-11.168-.44-.735-.881-1.763-.293-2.351.147-.294.587-.441.881-.588 2.204-.882 4.701-.882 6.758.147-5.289-7.347-10.431-14.841-14.544-23.07-1.176-2.351-2.351-4.996-2.057-7.641.734-8.523 10.284-5.731 14.544-2.058 8.815 7.495 13.958 19.103 13.664 30.712 1.175-2.351 4.701-2.498 6.758-1.029 2.057 1.617 2.938 4.262 3.085 6.907s-.147 5.143-.147 7.788c1.91.146 4.114.44 5.436 1.91 2.204 2.351.735 6.171-1.028 8.816-3.967 6.172-9.403 10.287-14.986 14.989-1.322 1.028-2.644 2.204-4.26 2.351" fill="#c0de00"/><g fill="#45595b"><path d="m119.443 324.746c-12.047-7.053-16.307-23.658-11.165-36.148 4.26-10.139 14.544-17.339 25.269-18.956 11.754-1.91 22.185 3.968 28.061 13.96 3.673 6.172 6.758 13.813 5.73 21.16-1.028 7.788-6.024 13.078-12.635 17.046-6.464 3.967-12.341 7.347-11.312 16.016.147 1.323-2.057 1.617-2.351.294-.882-3.673-4.701-7.2-7.787-9.11-3.966-2.498-9.402-2.204-13.81-4.262-1.322-.734-.294-2.791 1.176-2.057 4.848 2.351 10.725 2.057 15.132 5.143 3.232 2.204 6.758 5.878 7.64 9.699-.735.147-1.47.293-2.351.293-.882-6.906 2.204-11.608 7.787-15.282 7.198-4.702 14.25-8.082 16.013-17.486 1.47-7.788-2.644-16.311-6.758-22.629-3.379-5.29-8.668-8.964-14.691-10.433-10.872-2.645-22.625 2.938-29.384 11.461-9.402 11.609-6.758 31.299 6.465 39.087 1.469.882.294 2.939-1.029 2.204z"/><path d="m162.049 287.57c-1.322.44-2.498.734-3.82 1.175-.734.294-1.028-.881-.294-1.175 1.323-.441 2.498-.735 3.82-1.176.588-.294.882.882.294 1.176z"/><path d="m163.959 293.007c-7.199 3.526-15.133 3.379-22.919 3.085-.735 0-.735-1.175 0-1.175 7.639.294 15.279.588 22.331-2.792.588-.441 1.322.441.588.882z"/><path d="m162.049 298.297c-1.91.734-3.82 1.322-5.877 1.616-.734.147-1.028-1.029-.293-1.176 2.056-.294 3.966-.881 5.876-1.616.588-.294.882.882.294 1.176z"/><path d="m165.428 303.293c-4.701 1.91-9.549 2.645-14.692 2.351-.734 0-.734-1.176 0-1.176 4.996.294 9.697-.441 14.398-2.351.588-.294 1.029.882.294 1.176z"/><path d="m166.31 307.113c-1.323.441-2.645.735-3.82 1.176-.735.294-1.029-.882-.294-1.176 1.322-.441 2.645-.735 3.82-1.175.587-.147 1.028 1.028.294 1.175z"/><path d="m115.917 290.655c-1.469.147-2.938.294-4.408.441-.734 0-.734-1.175 0-1.175 1.47-.147 2.939-.294 4.408-.441.735-.147.735 1.028 0 1.175z"/><path d="m121.206 295.652c-4.407 2.057-9.402 2.498-14.104 1.028-.734-.294-.44-1.322.294-1.175 4.408 1.322 8.962 1.175 13.223-.882.734-.294 1.322.735.587 1.029z"/><path d="m116.505 301.676c-.881 0-1.763 0-2.644.147-.735 0-.735-1.175 0-1.175.881 0 1.763 0 2.644-.147.882 0 .882 1.175 0 1.175z"/><path d="m124.145 304.468c-4.555 1.763-9.55 1.91-14.251.441-.735-.294-.441-1.323.294-1.176 4.554 1.323 9.255 1.176 13.663-.44.734-.147 1.028.881.294 1.175z"/><path d="m137.514 251.127c-1.175 6.319-1.763 12.638.294 18.662.294 1.029-1.175 1.323-1.469.441-2.204-6.465-1.469-12.931-.294-19.543 0-.882 1.616-.441 1.469.44z"/><path d="m126.201 232.025c3.82 6.318 10.431 11.902 10.725 19.69-.441 0-.735-.147-1.175-.147.734-3.379 6.17-6.612 8.668-8.816 2.644-2.351 5.142-4.703 7.493-7.201 1.322-1.469 2.497-3.085 3.379-4.849.734-1.469 1.028-2.939.734-4.555-.734-3.674-4.848-1.029-6.023-.147-.588.441-1.176-.441-.735-.882 2.204-2.351 2.057-5.877 2.204-8.816.147-1.764.294-3.38 0-5.29-.588-3.233-7.346-6.613-7.493-1.029 0 .735-1.028.735-1.175 0-1.763-13.078-6.905-31.446-21.45-35.12-4.995-1.322-11.313.588-11.313 6.613 0 3.527 2.204 7.2 3.82 10.139 3.526 6.466 8.374 12.343 13.076 17.927.441.588-.147 1.323-.735.882-3.085-2.645-5.73 1.029-5.73 3.674 0 1.91 1.323 3.82 2.498 5.143 1.763 2.057 4.261 3.526 6.317 5.437.441.44 0 1.175-.587 1.028-4.261-1.175-3.379 4.261-2.498 6.319.294.881-.734 1.175-1.028.441-1.322-3.233-1.322-9.258 3.673-8.082-.147.294-.294.734-.588 1.028-4.114-3.673-10.431-7.053-8.962-13.519.735-3.379 5.142-4.408 7.493-2.351-.294.294-.588.588-.735.882-6.023-7.347-12.047-14.841-15.867-23.658-2.644-6.025-1.028-12.931 6.612-13.372 18.364-.882 25.122 22.336 27.179 36.589-.441 0-.735 0-1.175 0 0-3.82 5.729-6.025 8.08-2.645 2.204 3.233 1.91 6.172 1.616 9.992-.147 3.086-.147 6.172-2.35 8.523-.294-.294-.441-.588-.735-.882 5.73-4.114 9.403.441 6.905 6.319-1.91 4.555-6.317 8.229-9.99 11.462-1.616 1.469-3.379 3.085-5.142 4.555-1.323 1.175-3.967 2.792-4.408 4.702-.147.735-1.175.588-1.175-.147-.294-7.347-6.905-13.078-10.578-18.956-.294-1.028.734-1.616 1.175-.881z"/><path d="m115.917 173.394c10.431 8.964 17.336 21.16 20.568 34.385 3.379 14.107 2.498 28.36 1.469 42.614 0 1.028-1.616 1.028-1.616 0 1.029-13.813 1.616-27.038-1.028-40.851-2.645-13.519-9.99-26.156-20.421-35.119-.882-.588.146-1.764 1.028-1.029z"/><path d="m137.073 222.033c-3.232-2.498-6.464-5.143-9.55-7.935-.587-.441.294-1.323.882-.882 3.085 2.792 6.17 5.29 9.549 7.935.588.441-.293 1.322-.881.882z"/><path d="m147.798 213.216c-3.232 2.792-6.17 5.731-8.815 8.963-.441.588-1.322-.293-.881-.881 2.791-3.233 5.729-6.172 8.815-8.964.587-.441 1.322.294.881.882z"/><path d="m131.197 196.464c-3.673-2.792-7.787-4.555-11.166-7.788-.587-.587.294-1.322.882-.881 3.232 3.232 7.492 4.996 11.165 7.788.588.441-.293 1.322-.881.881z"/><path d="m133.547 185.59c-.147 3.527-.734 6.907-1.469 10.14-.147.734-1.322.44-1.175-.294.881-3.233 1.322-6.613 1.469-9.846 0-.734 1.175-.734 1.175 0z"/><path d="m137.661 236.58c-2.351-1.763-4.701-3.527-7.052-5.29-.588-.441.147-1.322.882-.882 2.35 1.764 4.701 3.527 7.052 5.29.587.441-.147 1.323-.882.882z"/><path d="m148.239 232.466c-3.232 1.616-6.611 2.939-9.99 4.261-.735.294-1.029-.882-.294-1.176 3.379-1.175 6.611-2.498 9.696-4.114.588-.294 1.323.735.588 1.029z"/><path d="m128.699 271.259c-8.228-32.034-40.5492-50.549-48.3357-82.73-.2939-1.028 1.3222-1.469 1.4691-.441 7.7866 32.181 40.1086 50.696 48.3356 82.73.294 1.029-1.175 1.469-1.469.441z"/><path d="m101.226 247.013c4.848 3.233 10.431 4.408 15.867 6.319 4.554 1.616 7.052 5.584 10.137 8.963-.294.147-.735.294-1.029.441-.587-6.612-1.469-13.078-1.616-19.543-.147-2.352-.147-4.703-.734-7.054-.294-1.469-.735-2.939-1.469-4.261-1.617-3.233-4.849 0-5.289 2.351-.147.735-1.176.588-1.176-.147.147-4.702-.147-9.404-1.322-13.96-.588-2.498-1.469-4.849-2.645-7.2-2.791-5.731-7.052 1.029-7.492 3.968-.147.587-1.029.587-1.176 0-2.791-7.935-18.9518-49.961-30.7052-31.006-4.7013 7.641.2939 16.752 4.8483 23.071 5.1421 7.2 11.6064 13.372 19.0991 18.074.5877.441.147 1.322-.5876 1.028-1.9099-.881-4.2606-1.028-6.1705-.147-1.0284 1.911-1.0284 3.527.1469 4.85.8815 1.175 1.9099 2.057 3.2322 2.791 2.4975 1.617 7.9338 2.499 10.8718 2.499.588 0 .881 1.028.147 1.175-1.469.294-2.645.588-4.114 1.323-3.8196 2.204-.1467 5.437 1.176 6.465.734.588-.147 1.47-.735.882-5.4359-4.262-2.4976-8.67 3.379-9.699 0 .441.147.735.147 1.176-5.1421.147-14.6917-1.763-16.1608-7.935-1.4692-5.584 4.9951-5.878 8.815-4.408-.1469.294-.4408.734-.5877 1.028-8.6681-5.29-15.5732-12.49-21.156-20.866-4.2606-6.318-7.7866-16.017-2.4976-22.923 13.8102-18.221 29.2361 23.658 32.3221 32.328-.441 0-.735 0-1.176 0 .735-4.409 4.408-9.111 8.815-5.437 2.351 1.91 3.232 7.053 3.967 9.845 1.028 4.261 1.175 8.67 1.028 13.078-.44 0-.734-.147-1.175-.147.294-2.057 1.469-4.996 3.967-5.143 2.644 0 3.82 2.939 4.407 4.996 1.176 3.38 1.176 7.053 1.176 10.58.147 6.025 1.175 12.196 1.616 18.221 0 .441-.588.882-1.029.441-3.82-4.261-6.317-7.641-11.9-9.551-4.701-1.617-9.55-2.792-13.81-5.731-.588-.147 0-1.176.588-.735z"/><path d="m108.131 234.376c-3.526-1.176-7.199-2.057-10.8721-2.351-.7345-.147-.7345-1.323 0-1.176 3.8201.441 7.6401 1.176 11.1661 2.351.734.294.44 1.323-.294 1.176z"/><path d="m109.453 220.563c-.294 4.555-.441 9.111-.147 13.666 0 .735-1.175.735-1.175 0-.294-4.555-.294-9.111.146-13.666.147-.735 1.323-.735 1.176 0z"/><path d="m90.7944 211.012c-4.1137-1.47-8.2273-3.233-12.0472-5.437-.7345-.441-.1469-1.47.5877-1.029 3.8198 2.057 7.7866 3.821 11.7533 5.29.5877.294.2939 1.47-.2938 1.176z"/><path d="m91.6761 197.493c0 4.261-.1469 8.376-.4407 12.637 0 .735-1.1753.735-1.1753 0 .2938-4.261.4407-8.376.4407-12.637 0-.735 1.1753-.735 1.1753 0z"/><path d="m117.974 248.189c-3.673-.294-7.346-.882-10.872-1.47-.734-.147-.44-1.322.294-1.175 3.526.587 7.052 1.175 10.578 1.469.735.147.735 1.323 0 1.176z"/><path d="m121.059 239.225c-.44 3.086-1.028 6.025-1.616 8.964-.147.734-1.322.441-1.175-.294.588-2.939 1.175-6.025 1.616-8.964.294-.735 1.322-.441 1.175.294z"/></g><path d="m219.64 163.402c-1.469 6.465-6.317 11.902-12.488 14.253-.146-1.616 0-3.379.588-4.996-1.91 1.323-4.114 2.351-6.17 3.086-2.498.882-5.877 1.029-7.052-1.322-1.029-2.058.44-4.262 1.763-6.025-2.939-.735-5.583-2.351-7.64-4.408-1.175-1.176-2.351-2.939-1.763-4.556.441-1.175 1.616-2.057 2.938-2.204 1.323-.147 2.645 0 3.82.441 4.261 1.029 8.521 2.498 12.635 4.261.294-2.057-2.498-3.967-1.616-6.024.588-1.176 2.351-1.47 3.526-.882s1.91 1.91 2.644 3.086c-.147-1.323.735-2.645 2.057-2.939 2.351 2.645 4.261 5.584 5.73 8.817" fill="#79a316"/><path d="m210.972 142.536c-4.995 3.086-10.872 4.408-16.601 3.673-.294-1.322 0-2.792 1.028-3.673-4.995-1.029-9.843-3.38-13.81-6.466-.882-.734-1.763-1.616-1.763-2.645 0-2.057 2.644-2.645 4.701-2.792-2.644-2.939-5.583-6.024-6.023-9.992-.147-1.175 0-2.351.881-3.086 1.469-1.322 3.82 0 5.289 1.176 2.792 2.204 5.583 4.555 8.374 6.759.294.294.735.588 1.176.294.294-.147.441-.441.441-.735.587-2.938 1.322-5.73 1.909-8.669 2.351.441 3.233 3.379 3.086 5.731-.147 2.351-.735 4.996.587 6.906-.293-2.057.441-4.114 1.91-5.437 2.498.294 4.114 2.939 4.995 5.29 1.617 4.408 2.645 8.964 3.086 13.519" fill="#79a316"/><path d="m226.252 145.915c2.938-.734 5.289-3.232 5.876-6.171-1.175-1.029-2.644-1.763-4.26-2.204 1.469-3.674 6.317-5.878 6.17-9.846-1.763-.44-3.673-.44-5.289.294 1.029-2.645 1.323-5.584.882-8.229-1.469-.44-2.792 1.029-3.526 2.498-1.322 2.499-2.204 5.29-2.645 8.082-1.763-1.616-4.113-2.645-6.464-2.792 0 2.058.588 4.262 1.616 6.025.735 1.176 1.616 2.351 1.91 3.821.294 1.469-.441 3.233-1.91 3.233 1.469 3.085 5.142 4.996 8.521 4.555" fill="#79a316"/><path d="m194.371 132.984c19.54 9.993 38.639 22.777 47.454 43.643.294.882 1.616.147 1.175-.735-8.815-21.16-28.208-34.091-47.894-44.23-.882-.294-1.616 1.029-.735 1.322z" fill="#45595b"/><path d="m210.679 141.36c-2.939 1.617-5.73 2.645-8.962 2.939-1.91.294-8.228.294-3.967-2.057.441-.294.441-1.176-.147-1.323-3.82-.734-7.64-.587-11.313-1.763-1.763-.588-3.379-1.322-4.995-2.204-2.497-1.029-2.497-2.792-.147-5.29 1.029-.147 1.91-.294 2.939-.294.734 0 1.028-1.176.147-1.322-4.261-1.029-11.607-9.846-8.081-13.96 3.82-4.555 12.194 4.408 14.986 6.612.587.441 1.469-.147 1.175-.881-1.175-2.204-1.028-4.409.588-6.466 3.526-1.028 5.729.147 6.464 3.527.735 2.057 1.028 4.114 1.322 6.171.147.588 1.029.735 1.323.147 2.791-6.024 6.17 3.821 6.758 5.437 1.175 3.527 1.616 7.348 1.616 11.021 0 .882 1.469.882 1.469 0 0-5.878-1.322-11.462-3.82-16.752-1.91-4.261-5.142-4.849-7.052-.293l1.322.147c-.293-2.498-2.203-13.519-7.345-11.756-4.261 1.469-5.583 5.731-3.673 9.551.44-.293.734-.587 1.175-.881-3.526-2.792-13.516-13.372-17.777-5.584-2.938 5.29 4.408 13.96 9.55 15.282l.147-1.322c-2.792.146-9.256 1.469-6.024 5.73 4.407 5.878 12.782 5.29 19.246 6.466 0-.441-.147-.882-.147-1.323-1.322.735-2.057 1.176-2.938 2.352-.147.146-.147.44 0 .734 2.938 4.702 13.81.294 17.189-1.616.441-.294-.294-1.47-1.028-1.029z" fill="#45595b"/><path d="m223.754 150.324c1.763-5.731 2.204-11.462 1.616-17.34-.147-.881-1.469-.881-1.469 0 .588 5.731.147 11.462-1.616 17.046-.147.735 1.175 1.176 1.469.294z" fill="#45595b"/><path d="m201.717 163.843c10.578 3.232 21.597 2.645 31.734-1.764.881-.294.147-1.616-.735-1.175-9.843 4.261-20.568 4.849-30.705 1.616-.882-.294-1.176 1.029-.294 1.323z" fill="#45595b"/><path d="m224.489 143.564c-1.91-1.322-3.673-2.791-5.436-4.408-2.204-2.057 2.057-1.322 1.91-1.322.441 0 .881-.588.587-1.029-.881-1.176-1.616-2.498-2.35-3.821-.588-1.322-1.175-2.645-1.616-3.967-1.029-2.351 0-2.498 3.379-.735.441.588 1.322.441 1.322-.294.147-4.408 1.91-8.375 5.73-11.02 5.583-3.821 3.526 5.583 3.379 6.318-.441 1.91-1.175 3.674-2.057 5.437-.294.735.441 1.47 1.028.882 1.323.294 2.792.588 4.114.734-.441 1.176-1.028 2.352-1.763 3.38-1.028 1.764-2.497 2.939-3.967 4.262-.587.44 0 1.322.735 1.175 2.791 1.176 2.938 2.204.294 3.233-1.763 1.029-3.82 1.469-5.73 1.469-.881 0-.881 1.47 0 1.47 2.645-.147 8.668-1.323 9.55-4.555.734-3.086-1.91-3.674-4.408-2.939l.735 1.175c2.497-2.204 7.346-6.759 6.317-10.727-1.028-3.673-4.995-1.469-6.611.147.294.294.734.588 1.028.882 1.029-2.204 6.171-14.254.147-14.548-6.317-.293-9.696 7.788-9.843 12.931.441-.146.881-.293 1.322-.293-.588-.882-4.995-6.172-6.317-3.233-1.763 3.967 2.203 10.139 4.407 13.225.147-.294.441-.735.588-1.029-1.029-.147-3.82-1.322-3.967.882-.147 3.38 4.408 5.731 6.758 7.347.735.735 1.469-.441.735-1.029z" fill="#45595b"/><path d="m214.205 155.32c4.848 2.057 5.876 9.257 3.819 13.225-1.175 2.498-2.938 4.702-4.848 6.759-.734 1.029-1.763 1.617-3.085 1.764.294-1.47.734-2.939 1.028-4.409.147-.734-.587-1.175-1.175-.734-2.498 2.057-5.142 3.526-8.227 4.408-4.114-1.029-5.289-2.351-3.233-3.821.735-.734.882-1.028 1.47-2.057.293-.441 0-.882-.441-1.028-2.498-.735-4.848-1.617-7.052-2.645-1.322-.588-2.498-1.47-3.673-2.352-.294-.293-.735-.734-1.028-1.028-2.792-2.498-2.057-5.29 2.203-8.082 4.849-.588 11.166 2.204 15.573 3.967.588.294 1.176-.587.735-1.028-1.322-4.555-.441-5.731 2.351-3.527 1.322.882 2.497 2.057 3.232 3.674.441.734 1.616.294 1.322-.588.441-.882.882-1.616 1.469-2.498.882-.147.882-1.47 0-1.47-2.497.294-3.673 1.764-2.791 4.262.441-.147.881-.294 1.322-.588-1.763-2.939-4.114-4.849-7.493-5.731-.293-.147-.587 0-.734.294-1.322 2.351-1.176 4.408.294 6.613.293-.294.587-.735.734-1.029-4.701-1.91-15.72-6.906-20.274-2.351-4.261 4.114 1.469 9.551 4.848 11.755 1.322.882 2.938 1.47 4.407 2.058 1.91.734 4.114.734 1.91 3.085-1.469 1.47-1.763 2.939-.587 4.703 2.791 4.408 12.635-2.204 14.838-3.968-.44-.294-.734-.441-1.175-.735-.441 1.911-.882 3.968-1.322 5.878 0 .294 0 .588.294.735 1.763.882 2.791-.441 4.113-1.616 2.939-2.645 5.583-5.731 7.052-9.405 1.763-4.408-.147-11.902-4.995-13.813-1.028-.293-1.616.882-.881 1.323z" fill="#45595b"/><path d="m104.605 52.8999c-2.645 1.0286-5.5833.7347-8.3747.147-3.526-.7348-7.1989-2.2042-9.6965-4.8492s-3.526-6.9064-1.9099-10.1391c1.763-3.2328 6.6113-4.5553 9.2558-1.9103-1.1754-3.6736-2.3507-7.3472-2.2038-11.1678.1469-3.8205 1.9099-7.788 5.4359-9.4044 3.0852-1.4694 6.7582-.8816 9.6962.8817 2.939 1.7633 4.995 4.7022 6.612 7.6411-.441-4.4083-.735-8.8167.587-12.9311 1.469-4.26137 4.995-8.08192 9.403-8.08192 3.673-.14694 7.052 2.35111 8.962 5.43693 1.91 3.08579 2.791 6.75939 3.526 10.43299 2.057-2.498 4.26-4.9961 7.199-6.1716 2.938-1.3225 6.758-1.0286 8.668 1.4694 2.938 3.9675-.441 9.4045-3.673 13.0781 4.114-1.1756 8.815-.8817 12.782.7347 1.175.5878 2.497 1.1755 3.232 2.3511 2.057 3.2327-1.029 7.0533-3.82 9.5513 6.17 1.3225 10.725 7.935 10.137 14.2536-.587 6.3186-5.583 11.9025-11.753 13.5189-6.171 1.7633-12.929 0-17.924-4.1145 1.028-1.0286 2.645-1.7633 4.114-1.6163-6.318-.8817-11.754-6.6125-12.194-13.0781-4.261.7348-8.668 1.3225-12.635-.1469s-7.346-5.4369-6.758-9.6983c-1.323 4.8491-7.346 7.788-11.901 5.7308 1.323 2.498 1.616 5.4369.735 7.935" fill="#79a316"/><g fill="#45595b"><path d="m102.694 49.2263c5.143 7.0533 4.702 15.1353 3.967 23.3641-.881 10.4331-2.791 20.7191-4.995 31.0056-.147 1.028 1.322 1.616 1.616.587 2.351-11.1673 4.261-22.3351 5.289-33.7967.735-8.082.294-15.4292-4.554-22.1886-.735-.8817-2.057.1469-1.323 1.0286z"/><path d="m109.012 47.1691c2.792 4.5553 4.701 9.4044 5.583 14.5475.147 1.0286 1.763.7347 1.616-.2939-.881-5.29-2.791-10.4331-5.73-14.9883-.587-.8817-2.057-.147-1.469.7347z"/><path d="m116.064 62.0104c2.204-4.7022 4.848-9.1106 7.64-13.3719.587-.8817-.735-1.7634-1.323-.8817-2.938 4.4083-5.582 8.9636-7.933 13.8127-.441.7348 1.175 1.3225 1.616.4409z"/><path d="m130.903 51.5774c-2.792 4.4083-4.555 9.2575-5.436 14.5475-.147 1.0286 1.469 1.1755 1.616.1469.735-4.9961 2.498-9.4044 5.142-13.6658.588-1.0286-.734-1.9102-1.322-1.0286z"/><path d="m126.936 66.5656c3.232-3.5266 7.199-6.3185 11.606-8.0819 1.029-.4408.294-1.9102-.734-1.4694-4.702 1.9103-8.815 4.8491-12.194 8.5227-.735.8817.587 1.7634 1.322 1.0286z"/><path d="m139.864 61.4227c-12.341 10.8738-19.687 26.156-20.421 42.6133 0 1.029 1.616 1.176 1.616.147.735-16.0165 7.933-30.8579 19.834-41.4378.881-.8817-.147-2.0573-1.029-1.3225z"/><path d="m102.107 104.918c4.408 3.821 15.573 5.731 18.952-.294.441-.881-.881-1.91-1.322-.881-2.938 5.143-13.075 3.085-16.601-.147-.882-.735-1.763.587-1.029 1.322z"/><path d="m110.334 68.476c-.147 3.8205-.587 7.4941-1.028 11.3147-.147.7347 1.175.8816 1.175.1469.588-3.6736.882-7.4941 1.029-11.3147.147-.7347-1.176-.8817-1.176-.1469z"/><path d="m108.424 83.6113c0 .7347 0 1.3225-.147 2.0572 0 .7347 1.176.8817 1.176.1469 0-.7347 0-1.3225.147-2.0572.147-.8817-1.029-1.0286-1.176-.1469z"/><path d="m122.822 77.7334c-1.91 4.1145-3.379 8.3759-4.26 12.9311-.147.7347 1.028.8817 1.175.147.881-4.4084 2.204-8.5228 4.114-12.6372.44-.8817-.735-1.1756-1.029-.4409z"/><path d="m117.974 94.7789c-.147.5878-.294 1.0287-.588 1.6164-.294.7347.882 1.1756 1.175.4409.147-.5878.294-1.0286.588-1.6164.294-.7347-.881-1.1756-1.175-.4409z"/><path d="m103.576 51.2836c-5.5827 3.0858-11.9002 2.0572-16.1607-2.645-3.673-4.1145-2.7915-16.3108 4.8482-15.1353 1.6161.2939 1.763-2.2041.1469-2.498-7.4927-1.1756-11.0187 9.1105-9.1088 14.9883 3.0852 8.8166 13.5163 11.9025 21.4494 7.4941 1.323-.8816.294-3.0858-1.175-2.2041z"/><path d="m91.235 31.0052c-.7346-5.5839 1.3222-11.0208 6.3174-13.9597 4.2606-2.3511 9.8436-1.1755 13.0756 2.3511 1.028 1.1756 2.938-.4408 1.91-1.6163-4.114-4.5553-10.431-5.437-16.014-2.9389-6.1705 2.7919-8.5212 10.433-7.7866 16.6046.2938 1.6164 2.6445 1.0287 2.4976-.4408z"/><path d="m110.481 15.87c.882-6.3186 5.142-11.46164 11.166-13.07803 6.171-1.76333 12.635 2.05722 15.279 7.49413.735 1.4695 2.939.4409 2.204-1.02859-3.232-6.75943-10.578-10.28609-17.924-8.963589-7.346 1.322499-12.194 8.375809-13.222 15.429079-.147 1.6164 2.35 1.7634 2.497.147z"/><path d="m138.689 8.66973c3.967-4.55527 11.9-1.3225 15.279 2.05717 4.408 4.4084 3.086 11.4617-1.028 15.4292-1.175 1.1755.441 2.9389 1.616 1.9102 5.877-5.5838 6.024-14.1066.294-19.8374-4.555-4.40833-13.81-6.02471-18.365-.88167-.881 1.17555 1.176 2.49805 2.204 1.3225z"/><path d="m155.144 26.5969c3.967 0 7.346 1.3225 10.137 4.2614 3.086 3.2328 4.114 9.8453-1.028 11.4616-1.469.4409-1.029 2.9389.441 2.4981 5.289-1.7633 6.611-7.0533 4.848-12.0494-2.057-5.5839-8.521-8.6697-14.251-8.6697-1.469 0-1.763 2.498-.147 2.498z"/><path d="m167.779 44.3771c10.431 4.9961 4.113 19.1027-3.232 23.3641-8.228 4.7022-18.512 1.4694-25.123-4.5553-1.175-1.0286-3.085.5878-1.91 1.6164 8.521 7.788 20.421 10.2861 30.412 3.6736 8.668-5.7308 11.312-21.4538.734-26.4499-1.469-.7348-2.204 1.6163-.881 2.3511z"/><path d="m95.9363 43.4955c2.7914 3.9675 7.6397 5.5839 12.3407 4.2614 4.702-1.3225 7.64-6.0247 8.375-10.58.293-1.6164-2.204-1.7633-2.498-.1469-1.322 7.935-11.166 12.3433-16.4547 4.8491-.7346-1.3225-2.6445.2939-1.763 1.6164z"/><path d="m114.154 41.1443c4.261 8.3759 13.81 10.1392 21.891 6.4656 1.469-.7347.44-2.9389-1.029-2.2042-6.905 3.0858-14.985 1.9103-18.511-5.29-.735-1.4694-3.085-.4408-2.351 1.0286z"/><path d="m131.196 48.1977c.588 9.6983 9.403 16.3108 18.952 13.5189 1.47-.4409 1.029-2.9389-.44-2.4981-7.787 2.3511-15.427-2.645-16.014-10.8738-.147-1.6164-2.645-1.7634-2.498-.147z"/><path d="m128.846 19.2496c-3.086 2.645-3.967 7.7881-1.323 11.1678 3.086 3.8205 8.375 4.2614 12.341 1.4694.588-.4408-.147-1.4694-.734-.8816-3.085 2.2041-7.346 2.0572-10.137-.7348-2.645-2.7919-1.91-7.6411.734-9.9922.588-.5877-.294-1.4694-.881-1.0286z"/><path d="m101.666 30.2705c2.204 3.2328 6.905 3.0858 8.962-.1469.441-.7348-.588-1.3225-1.028-.7348-1.763 2.645-5.289 2.645-7.052.147-.441-.7347-1.323 0-.882.7347z"/><path d="m139.13 30.8583c-2.351 6.3186-1.175 12.9311 4.848 16.6047 4.848 2.9389 10.872.4408 13.223-4.2614.294-.7347-.882-1.1755-1.176-.4408-2.791 5.8778-9.843 5.7308-13.957 1.4694-3.526-3.3797-3.232-8.8166-1.616-13.078.147-.7347-1.028-1.0286-1.322-.2939z"/><path d="m158.082 59.3654c3.085 3.3797 7.346.4408 9.256-2.4981.441-.7347-.588-1.3225-1.029-.7347-1.469 2.2042-4.848 5.143-7.345 2.3511-.441-.5878-1.47.2939-.882.8817z"/></g></g></svg>