<svg fill="none" height="305" viewBox="0 0 206 305" width="206" xmlns="http://www.w3.org/2000/svg" xmlns:xlink="http://www.w3.org/1999/xlink"><clipPath id="a"><path d="m0 0h206v305h-206z"/></clipPath><g clip-path="url(#a)"><path d="m39.1614 192.759c2.5482-9.409 5.2304-18.819 7.7786-28.228-1.4752 4.167-6.1692 6.317-10.4609 5.914s-8.181-2.823-11.3998-5.78c-.4023-.403-.8046-.806-.8046-1.344s.4023-1.075.6705-1.479c3.0847-3.226 7.1081-5.645 11.3998-6.855-5.767-8.2-8.9857-18.147-9.1198-28.228 0-3.092.4023-6.587 2.8164-8.603 2.2799-1.748 5.7669-1.613 8.181 0 2.5481 1.478 4.1575 4.032 5.4987 6.586 4.0234-8.468 10.9974-15.458 19.4466-19.356 3.0846-1.344 6.8398-2.42 9.5221-.538 2.8164 1.882 3.3529 5.78 3.2188 9.141-.2683 9.14-2.8164 18.146-7.3763 26.077 3.6211-1.478 8.3151-2.554 10.9974.403 3.0846 3.495.4023 9.007-2.9506 12.098-3.4869 3.361-7.7786 6.049-12.3385 7.797 2.4141 1.478 4.8281 3.091 6.3034 5.511 1.4752 2.42 1.7435 5.78-.1341 7.796-1.2071 1.21-2.9506 1.748-4.694 2.151-4.4258.807-9.1198.538-13.5456-.672-1.4753 5.511-3.7552 10.754-6.974 15.458-.8047 1.21-1.7435 2.42-3.0846 2.823-1.3412.403-3.2188-.269-3.3529-1.747" fill="#79a316"/><path d="m3.08458 264.136c7.51042 3.898 15.69142 5.646 24.14062 5.243.8047 0 .6706-1.345-.1341-1.345-8.3151.404-16.0938-1.344-23.47006-5.108-.80469-.403-1.34115.807-.53646 1.21z" fill="#45595b"/><path d="m4.15737 270.723c1.34115.672 2.6823 1.075 4.02344 1.344.80469.134 1.07292-1.21.13412-1.344-1.34115-.135-2.54818-.538-3.75521-1.21-.67057-.403-1.20703.807-.40235 1.21z" fill="#45595b"/><path d="m6.30333 277.175c6.83987 3.898 14.21617 5.78 21.99477 5.242.8047 0 .6706-1.344-.1341-1.344-7.6445.403-14.7526-1.344-21.32421-5.242-.80469-.269-1.34115.941-.53646 1.344z" fill="#45595b"/><path d="m6.03498 286.047c2.01172 1.075 4.29162 1.478 6.57162 1.075.8047-.134.6706-1.478-.1341-1.344-2.0117.269-4.02346 0-5.90106-.941-.67058-.403-1.34115.807-.53646 1.21z" fill="#45595b"/><path d="m4.29156 293.843c4.02344 2.016 8.31514 2.957 12.74084 2.823.8047 0 .6706-1.344-.1341-1.344-4.2916.134-8.31507-.672-12.07028-2.689-.67057-.403-1.20703.807-.53646 1.21z" fill="#45595b"/><path d="m59.2786 211.981c-.6706-14.517-17.1667-22.851-30.1758-19.356-8.8516 2.419-13.0091 9.409-16.6302 17.34-5.09635 11.56-7.24219 24.33-9.11979 36.831-1.74349 11.56-3.218752 23.12-3.486981 34.815-.134114 8.065.938802 18.416 8.851561 22.583 8.71741 4.57 15.82551-9.275 19.44661-14.652 7.6445-11.695 13.5456-24.599 18.6419-37.504 2.8164-7.124 5.3646-14.383 8.0469-21.641 2.5482-6.049 4.5599-11.964 4.4258-18.416 0-1.747-2.6823-1.478-2.6823.269 0 6.452-2.28 12.367-4.5599 18.416-2.1458 5.645-4.1576 11.291-6.3034 16.937-4.8281 12.501-10.3268 24.599-17.1667 36.159-2.8164 4.704-5.901 9.409-9.2539 13.711-1.7434 2.285-4.0234 4.167-6.8398 4.704-3.75521.807-6.57161-3.495-7.77865-6.317-3.889319-8.469-2.14583-19.626-1.34114-28.632.9388-11.829 2.95052-23.658 5.23047-35.218 2.14582-10.754 5.36462-25.406 13.81382-33.068 11.2656-10.216 33.3945-2.15 34.0651 13.308.2682 1.747 2.9505 1.344 2.8164-.269z" fill="#45595b"/><path d="m15.5574 206.335c6.8398 3.495 13.9479 5.512 21.5924 6.184.8047.134 1.0729-1.21.2682-1.344-7.5104-.538-14.4843-2.554-21.1901-6.049-.9388-.404-1.4752.806-.6705 1.209z" fill="#45595b"/><path d="m15.0208 219.912c11.9362 6.721 25.0794 10.082 38.7591 9.947.8047 0 .6706-1.344-.1341-1.344-13.4114.134-26.4206-3.226-38.0885-9.813-.6706-.537-1.2071.672-.5365 1.21z" fill="#45595b"/><path d="m14.6185 227.305 3.7552.941c.8047.269 1.0729-1.075.1341-1.344l-3.7552-.941c-.8047-.135-.9388 1.21-.1341 1.344z" fill="#45595b"/><path d="m6.70562 235.101c6.03518 3.495 12.60678 5.377 19.58078 5.646.8046 0 1.0729-1.344.1341-1.344-6.8399-.269-13.2774-2.151-19.17842-5.646-.67057-.269-1.20703.941-.53646 1.344z" fill="#45595b"/><path d="m14.7524 244.376c1.6094.673 3.3529.941 5.2305.941.8047 0 .6706-1.344-.1341-1.344-1.6094 0-3.0846-.269-4.4258-.806-.9388-.269-1.4753.941-.6706 1.209z" fill="#45595b"/><path d="m11.2656 249.081c8.4492 4.57 17.8373 6.452 27.4935 5.646.8047-.135.6706-1.479-.1341-1.344-9.388.806-18.3737-1.076-26.6888-5.512-.9388-.403-1.4753.807-.6706 1.21z" fill="#45595b"/><path d="m29.7733 262.254c1.7435.673 3.487.941 5.3646.941.8047 0 .6706-1.344-.1341-1.344-1.6094 0-3.2188-.269-4.694-.806-.8047-.269-1.3412.941-.5365 1.209z" fill="#45595b"/><path d="m39.5637 193.969c2.6823-8.334 5.4987-16.803 8.181-25.137.2682-.806-.5364-1.613-1.3411-1.075-2.8164 1.747-5.6328 2.285-8.9857 1.747-2.0117-.269-3.7552-1.21-5.2305-2.419l-1.6094-1.748c-2.5481-4.032-1.207-6.452 4.1576-7.258.8047.403 1.6094-.538 1.0729-1.345-4.1575-6.452-6.8398-14.652-7.3763-22.313-.2682-4.168 1.0729-8.2 3.7552-11.426 3.7552-4.436 10.8633-3.898 13.8138.941.4024.806 1.4753.269 1.6094-.404 2.9505-10.888 14.3503-26.2115 27.2253-22.044 14.2161 4.57 1.4752 29.975-3.2188 37.503-.5364.806.4024 2.016 1.207 1.344 3.487-2.823 8.0469-2.016 10.7292 1.344 2.5482 3.226 1.7435 7.797.1341 11.157-3.3528 6.99-12.6067 9.006-19.4466 10.216-1.0729.134-.9388 1.882.1341 1.748 9.1198-.807 10.9974 11.56 2.0117 13.71-4.8281 1.21-11.6679.135-15.289-3.226-.4024-.403-1.2071-.269-1.3412.269-1.8776 6.452-4.0234 12.77-6.5716 19.088-.4023 1.075 1.207 1.747 1.6094.672 2.4141-6.318 4.5599-12.636 6.4375-19.088-.4024.135-.9388.269-1.3412.269 4.9623 4.57 18.7761 6.721 22.7995-.134 3.8893-6.721-.8047-14.114-8.5833-13.442 0 .537.1341 1.209.1341 1.747 9.7904-1.747 22.1289-5.78 22.5312-17.609.2683-7.931-8.8515-13.576-15.289-8.334.4023.403.8047.806 1.207 1.344 5.9011-9.409 17.0326-31.723 3.7552-39.788-13.6797-8.1999-28.0299 11.963-30.9804 22.851.5364-.134 1.0729-.269 1.6093-.403-5.3645-8.737-16.0937-4.033-19.5807 3.495-4.2917 9.409 1.0729 23.523 6.3034 31.454.4023-.403.6706-.941 1.0729-1.344-5.3646-2.151-9.9245 4.033-6.9739 8.872 4.0234 6.721 12.6067 7.662 19.0442 3.898-.4023-.403-.9388-.672-1.3411-1.075-2.6823 8.334-5.4987 16.802-8.181 25.136.1341 1.21 1.7435 2.017 2.1458.807z" fill="#45595b"/><path d="m125.129 239.134c2.012-4.57 5.901-8.334 10.461-10.216.402-.134.805-.269.939-.672.268-.403.134-.941 0-1.344-1.073-4.839 2.28-10.216 7.108-11.426.804.806.134 2.285-.403 3.36-1.475 2.42-2.414 5.108-2.816 7.797 6.706-.269 13.411 3.092 17.033 8.737.268.403.402.807.268 1.21-.268.538-.939.538-1.476.538-4.694-.538-9.388-1.613-13.947-3.226 2.682 1.478 4.157 4.704 3.487 7.662-.135.537-.269 1.075-.805 1.344-.537.403-1.207.134-1.878 0-2.816-1.076-4.694-3.63-6.437-6.049-3.755.941-7.242 2.823-10.193 5.242" fill="#c0de00"/><g fill="#45595b"><path d="m196.076 287.525c-9.925 1.613-18.374-4.436-23.336-12.501-5.767-9.14-10.193-19.491-12.875-29.976-.537-2.285-1.341-4.57-2.28-6.721-.537.135-1.073.135-1.61-.134-.268-.134-.402-.134-.67-.269 1.341 2.823 2.146 6.184 2.816 8.872 1.341 5.242 3.219 10.216 5.499 15.189 3.621 7.931 7.644 17.072 14.484 22.583 5.633 4.57 13.278 5.646 20.252 4.705 1.475-.269 2.816-.269 4.291 0 2.951.672.537 3.898-.536 4.973-2.28 2.151-5.633 3.495-8.584 4.436-17.971 5.915-38.356 3.226-50.561-12.501-5.633-7.259-8.985-16.265-11.399-25.002-1.878-6.721-3.353-14.921-.403-21.507.268-.538.537-.941.805-1.345-1.073.538-2.146 1.076-3.085 1.748-.134 0-.134.134-.268.134-1.609 4.571-1.341 9.947-.671 14.518 1.073 7.393 3.622 14.652 6.572 21.373 4.962 11.022 13.009 20.566 24.543 24.867 11.266 4.167 23.47 3.495 34.87-.268 3.889-1.345 11.534-4.167 11.936-9.007.536-5.645-6.169-4.704-9.79-4.167z"/><path d="m133.176 243.839c-1.207 14.383 3.487 28.631 13.009 39.519.402.538 1.207-.269.671-.806-9.389-10.619-13.814-24.599-12.607-38.713 0-.672-.939-.672-1.073 0z"/><path d="m147.794 286.584c.671 1.21 1.61 2.151 2.683 2.958.536.403 1.073-.538.536-.941-.939-.672-1.743-1.613-2.28-2.554-.402-.538-1.207 0-.939.537z"/><path d="m162.949 296.532c4.024 2.15 8.449 2.957 13.009 2.419.671-.134.671-1.075 0-1.075-4.291.537-8.583-.269-12.472-2.285-.671-.404-1.207.537-.537.941z"/><path d="m182.664 299.085 1.743-.537c.671-.135.403-1.21-.268-.941l-1.743.538c-.671.134-.403 1.209.268.94z"/><path d="m139.613 218.568c-2.011 3.226-2.548 6.855-1.609 10.484.134.673 1.207.404.939-.268-.805-3.361-.268-6.856 1.609-9.813.402-.538-.536-1.075-.939-.403z"/><path d="m140.15 219.374c1.341-.269 2.682-.403 4.023-.134l-.268-.807c-2.012 2.689-2.95 5.915-2.682 9.275 0 .672 1.073.672 1.073 0-.269-3.091.536-6.049 2.414-8.603.268-.269.134-.806-.269-.806-1.609-.269-3.084-.135-4.559.134-.671 0-.403 1.076.268.941z"/><path d="m138.54 228.246c-6.169.538-12.204 6.586-14.484 12.232-.268.672.671 1.075.939.538 2.146-5.243 7.778-11.157 13.545-11.695.671-.134.671-1.075 0-1.075z"/><path d="m124.861 241.419c4.291-.941 8.449-2.419 12.204-4.57.537-.269 0-1.21-.536-.941-3.755 2.151-7.779 3.629-11.936 4.436-.671.134-.403 1.21.268 1.075z"/><path d="m136.395 236.446c2.145 3.36 5.498 5.78 9.388 6.586.67.135.938-.941.268-1.075-3.621-.807-6.706-2.957-8.718-6.049-.536-.538-1.341 0-.938.538z"/><path d="m146.319 242.226c-1.073-2.689-1.609-5.377-1.475-8.2 0-.672-1.073-.672-1.073 0-.134 2.957.402 5.78 1.475 8.469.268.672 1.341.403 1.073-.269z"/><path d="m142.161 228.38c7.913-3.495 13.814 4.839 17.704 10.485.402.538 1.207 0 .938-.538-4.023-6.049-10.461-14.651-18.776-10.888-.804.135-.536 1.21.134.941z"/><path d="m144.173 234.564c5.097 2.688 10.327 5.377 16.228 4.704.671-.134.671-1.075 0-1.075-5.767.672-10.863-1.882-15.691-4.57-.671-.269-1.207.672-.537.941z"/><path d="m117.619 93.8255c-3.622-6.721-2.28-15.8616-.269-22.8515 2.414-8.4684 7.779-13.7108 15.558-17.4746 17.3-8.3341 36.345 3.3605 39.295 21.6417.268 1.2098 2.146.6721 1.878-.5377-1.475-8.7373-6.304-16.3993-13.68-21.3729-8.181-5.6456-18.374-5.78-27.359-2.0163-8.315 3.495-14.082 9.0062-17.167 17.4747-2.816 7.7964-4.157 18.6844 0 26.212.671 1.0753 2.414.1344 1.744-1.0754z"/><path d="m117.082 95.0353c16.496-11.4258 36.077-18.1468 56.06-19.0877 1.341 0 1.341-2.0163 0-2.0163-20.385.9409-40.234 7.7964-56.999 19.3565-1.207.6721-.134 2.4196.939 1.7475z"/><path d="m116.68 95.7075c7.778 0 15.021-1.7475 22.531-3.7638 1.207-.2689.671-2.2852-.537-1.8819-7.376 1.8819-14.35 3.6293-21.994 3.6293-1.207 0-1.207 2.0164 0 2.0164z"/><path d="m172.337 74.6034c-5.096 4.3015-10.729 7.662-17.032 9.6783-1.207.4033-.671 2.2851.536 1.8819 6.706-2.1507 12.607-5.7801 17.971-10.216.939-.8065-.402-2.1507-1.475-1.3442z"/><path d="m137.602 87.5077c2.011 8.3341 3.218 17.4743 6.974 25.2713 2.145 4.436 6.437 9.409 11.802 8.603 6.035-.941 12.07-7.393 10.729-13.846-.939-4.032-3.219-7.9304-5.097-11.5598-2.414-4.8391-4.962-9.5438-7.51-14.1141-.671-1.0754-2.28-.1344-1.743.9409 3.352 6.1834 6.705 12.3667 9.79 18.55 2.012 4.033 3.755 7.528 1.743 11.963-1.475 3.227-5.23 5.781-8.851 6.049-5.633.404-9.12-6.989-10.729-11.291-2.414-6.721-3.621-14.1141-5.231-21.104-.268-1.2097-2.28-.6721-1.877.5377z"/><path d="m139.211 87.7766c4.292-2.8229 9.12-4.3015 14.216-4.5703 1.341 0 1.341-2.0164 0-2.0164-5.499.2689-10.595 1.8819-15.155 4.8392-1.073.6721-.134 2.4196.939 1.7475z"/><path d="m143.503 94.3632c.804 7.7968 3.755 14.7858 8.851 20.5668.403.537 1.073-.269.671-.673-4.962-5.645-7.913-12.501-8.584-19.8938 0-.5377-.938-.5377-.938 0z"/><path d="m142.296 91.2716c.134.4032.268.9409.402 1.3442.134.6721 1.073.4032.939-.2689-.134-.4032-.269-.9409-.403-1.3442-.134-.6721-1.073-.4032-.938.2689z"/><path d="m136.663 84.4161c1.609.1344 3.219.8065 4.56 1.7474.536.4033 1.073-.5376.536-.8065-1.475-1.0753-3.219-1.613-5.096-1.8819-.671-.1344-.671.941 0 .941z"/><path d="m127.141 88.7175c3.755-.6721 7.51-1.3442 11.265-.4032.671.1344.939-.8066.269-.941-3.89-.9409-7.913-.4032-11.802.4033-.671.1344-.403 1.0753.268.9409z"/><path d="m125.263 94.2288c4.023-2.2851 8.315-3.7638 12.741-4.5703.671-.1344.402-1.0753-.268-.9409-4.56.8065-8.986 2.2851-13.009 4.7047-.537.2688 0 1.2098.536.8065z"/><path d="m145.514 83.6096v-2.8228c0-.6721-.938-.6721-.938 0v2.8228c-.135.6721.938.6721.938 0z"/><path d="m149.538 82.131c.268-1.0754.67-2.0163 1.073-2.9573.268-.5377-.537-1.0753-.805-.5377-.536 1.0754-.939 2.1508-1.207 3.2261-.134.6721.805.941.939.2689z"/><path d="m154.232 83.4751c2.95-.4033 5.767-.8065 8.717-1.2098.671-.1344.403-1.0753-.268-.9409-2.951.4032-5.767.8065-8.717 1.2098-.537.1344-.269 1.0753.268.9409z"/><path d="m118.423 74.2001c-.939 4.0326-1.609 8.0652-.67 12.0978.134.6721 1.073.4033.938-.2688-.938-3.8982-.134-7.7964.671-11.5602.134-.6721-.805-.9409-.939-.2688z"/><path d="m120.435 68.6889c-.537.8065-.939 1.7474-1.207 2.6884-.134.6721.805.9409.939.2688.268-.9409.536-1.7475 1.073-2.4196.402-.6721-.537-1.0753-.805-.5376z"/><path d="m153.561 81.9965c2.682-2.6885 6.035-4.1671 9.656-5.2425.671-.1344.403-1.2097-.268-.9409-3.755 1.0754-7.242 2.6884-10.058 5.5112-.537.4033.134 1.2098.67.6722z"/><path d="m159.194 58.3385c4.292 3.4949 7.376 7.7964 9.12 13.0388.134.6721 1.207.4032.939-.2689-1.744-5.3768-4.963-9.9471-9.254-13.5764-.537-.2689-1.207.4032-.805.8065z"/><path d="m158.658 115.87c1.609-.403 2.816-1.747 2.95-3.494 0-.673-.939-.673-.939 0-.134 1.209-1.072 2.285-2.145 2.419-.805.269-.537 1.21.134 1.075z"/></g><path d="m18.3737 32.6642c-.6706-.8066-1.0729-1.7475-1.3411-2.8229-1.7435-6.4521.9388-13.5764 5.4987-18.55 4.4257-4.97354 10.595-8.33405 16.4961-11.2913.4023 6.31776 1.4752 12.7699.6705 19.0877-.9388 6.3178-4.2916 12.7699-10.1927 15.0551-2.9505 1.0754-6.1693 1.2098-9.2539.5377-1.207-.2689-2.6823-1.0754-2.4141-2.2852" fill="#c0de00"/><path d="m18.1055 32.1265c-3.3528-6.1834.2683-13.1732 4.4258-17.878 4.2917-4.70467 10.1927-7.5275 15.6914-10.35033l-.9388-.40326c2.4141 6.31776 2.6823 13.03879.2682 19.49099-1.207 3.3605-3.4869 6.0489-6.3033 8.334-3.6211 2.9573-10.9974 4.9736-13.6797-.2688-.4024-.8065-1.7435-.2688-1.3412.6721 3.8894 7.7964 14.7526 3.0917 18.9102-2.0163 6.3034-7.5275 6.8398-17.8779 3.3528-26.88409-.1341-.40326-.6705-.53768-.9388-.40326-6.8398 3.36051-13.5455 6.98986-18.2395 13.30765-3.487 4.7047-5.4987 11.5601-2.5482 16.9369.5364.941 1.8776.4033 1.3411-.5376z" fill="#45595b"/><path d="m34.8699 7.66196c-3.8893 9.27504-8.9857 17.74354-15.1549 25.67434-.5365.8065.6705 1.613 1.207.8065 6.3034-7.9308 11.3997-16.6681 15.2891-25.94316.4023-.94094-1.073-1.47862-1.3412-.53768z" fill="#45595b"/><path d="m24.8114 14.2486c.9388 2.6884 2.0117 5.3768 3.2187 7.9308.4024.8065 1.7435.2688 1.3412-.6721-1.207-2.554-2.28-5.2424-3.2188-7.9308-.2682-.8065-1.6093-.1344-1.3411.6721z" fill="#45595b"/><path d="m29.1029 22.8515c2.414-.8065 4.9622-1.4786 7.3763-2.0163.9388-.2688.6706-1.613-.2682-1.4786-2.5482.5377-4.9623 1.2098-7.3763 2.0163-.9388.2688-.6706 1.7475.2682 1.4786z" fill="#45595b"/><path d="m19.1784 22.8514c1.2071 2.2852 2.5482 4.4359 4.1576 6.5866.5364.8065 1.7435-.2688 1.0729-.9409-1.4753-2.0163-2.8164-4.0326-3.8893-6.1834-.4024-.9409-1.7435-.2688-1.3412.5377z" fill="#45595b"/><path d="m24.0066 29.5725c2.8164-.1344 5.4987-.6721 8.181-1.4786.9388-.2688.6705-1.7475-.2683-1.4786-2.5481.8065-5.2304 1.3442-7.9127 1.4786-.8047 0-.9388 1.4786 0 1.4786z" fill="#45595b"/></g></svg>