<svg width="58" height="50" fill="none" xmlns="http://www.w3.org/2000/svg"><g clip-path="url(#clip0_213_1977)"><path d="M33.421 16.623l-4.637-5.485h-.147L24 16.623l-1.855 13.273h13.131l-1.855-13.273z" fill="#99C29E"/><path d="M30.736 29.798H26.93v-3.673c0-1.029.83-1.91 1.904-1.91a1.91 1.91 0 0 1 1.903 1.91v3.673z" fill="#fff"/><path d="M33.192 1.651l-3.725 4.147c-.164.198-.197.461-.066.659l-.263.263a1.188 1.188 0 0 0-1.055 0l-.23-.23c.131-.198.098-.494-.067-.692l-3.692-4.147c-.23-.23-.593-.263-.824-.033l-.626.625c-.23.23-.23.626.033.823l4.153 3.687c.198.164.462.197.66.066l.23.23c-.164.33-.197.724 0 1.02l-.23.297a.607.607 0 0 0-.66.066l-4.153 3.719c-.23.23-.264.592-.033.823l.626.625c.231.23.627.23.825-.033l3.691-4.147a.594.594 0 0 0 .066-.691l.231-.23c.33.197.725.197 1.055 0l.23.23c-.131.197-.098.46.066.658l3.692 4.147c.231.23.594.264.824.033l.627-.625c.23-.23.23-.626-.033-.823l-4.088-3.686a.597.597 0 0 0-.692-.066l-.23-.23c.197-.33.197-.725 0-1.054l.23-.23a.553.553 0 0 0 .692-.066l4.154-3.72c.23-.23.263-.592.032-.822l-.626-.626c-.23-.23-.626-.23-.824.033zM28.94 7.905a.459.459 0 0 1-.626 0 .457.457 0 0 1 0-.626.459.459 0 0 1 .626 0c.198.198.198.461 0 .626zm-18.635 4.157L7.914 4.813c-.196-.588-1.074-.588-1.27 0L4.497 12.16c-.342 1.077 0 2.302.78 3.085.489.49 1.075.735 1.66.833l.196 4.212 1.464-.05-.195-4.26c.439-.147.878-.392 1.22-.784.781-.832 1.025-2.008.683-3.134zm6.297 4.798l-2.05-6.22c-.195-.539-.928-.539-1.074 0l-1.904 6.27c-.293.93 0 1.958.684 2.644.39.392.927.637 1.464.735l.195 3.624 1.172-.05-.195-3.672c.39-.147.732-.343 1.073-.637.684-.735.928-1.763.635-2.694zm31.818 3.897l2.392-7.248c.195-.588 1.074-.588 1.269 0l2.196 7.297c.342 1.078 0 2.302-.78 3.086-.489.49-1.075.735-1.66.832l-.196 4.212h-1.513l.196-4.26c-.44-.147-.88-.392-1.22-.784-.782-.833-1.026-2.008-.684-3.135zm-6.297 1.176l2.05-6.22c.195-.54.927-.54 1.074 0l1.904 6.269c.292.93 0 1.959-.684 2.645-.39.391-.927.636-1.464.734l-.195 3.624-1.22-.049.194-3.673a3.464 3.464 0 0 1-1.073-.637c-.635-.734-.879-1.763-.586-2.693z" fill="#99C29E"/></g><path d="M4.436 37.067C2.034 35.664 0 32.104 0 29.292V18.944c7.384-.585 11.758 1.39 17.22 3.875 4.915 2.24 17.218 6.166 28.455 6.372-1.804.353-6.52 2.01-8.337 2.33-9.861 1.743-21.388 2.9-28.638 8.696l-4.264-3.15z" fill="url(#paint0_linear_213_1977)"/><path d="M58 29.048c0 2.814-2.038 6.378-4.45 7.782L32.77 48.949c-1.146.667-2.767 1.05-4.45 1.05-1.676 0-3.303-.383-4.45-1.05L8.7 40.217c4.687-4.677 13.438-6.34 22.674-7.964C41.783 30.42 52.497 28.526 58 21.739v7.31z" fill="url(#paint1_linear_213_1977)"/><defs><linearGradient id="paint0_linear_213_1977" x1="18.849" y1="18.18" x2="18.849" y2="38.836" gradientUnits="userSpaceOnUse"><stop stop-color="#95C11F"/><stop offset="1" stop-color="#063"/></linearGradient><linearGradient id="paint1_linear_213_1977" x1="33.347" y1="20.819" x2="33.347" y2="49.593" gradientUnits="userSpaceOnUse"><stop stop-color="#95C11F"/><stop offset="1" stop-color="#063"/></linearGradient><clipPath id="clip0_213_1977"><path fill="#fff" transform="translate(4.35)" d="M0 0H50.75V28.985H0z"/></clipPath></defs></svg>