<svg enable-background="new 0 0 22 19" viewBox="0 0 22 19" xmlns="http://www.w3.org/2000/svg"><path d="m3.4 9.9c-.4 0-.7.3-.7.7s.3.7.7.7h2.8c.4 0 .7-.3.7-.7v-5.7c0-.4-.3-.7-.7-.7h-2.8c-.4 0-.7.3-.7.7s.3.7.7.7h2.1v1.4h-2.1c-.3 0-.6.4-.6.7s.3.7.7.7h2.1v1.4h-2.2zm9-1.5c0-.7-.6-1.4-1.4-1.4h-1.4v-1.4h2.1c.4 0 .7-.3.7-.7s-.3-.7-.7-.7h-2.1c-.8 0-1.4.6-1.4 1.4v4.2c0 .8.6 1.4 1.4 1.4h1.4c.8 0 1.4-.6 1.4-1.4zm-1.4 1.5h-1.4v-1.5h1.4zm4.1 1.4h1.4c.8 0 1.4-.6 1.4-1.4v-4.3c0-.8-.6-1.4-1.4-1.4h-1.4c-.8 0-1.4.6-1.4 1.4v4.2c.1.8.7 1.5 1.4 1.5zm0-5.7h1.4v4.2h-1.4zm5.3 2.7c-.3-.2-.7-.2-1 .1-.2.3-.2.7.1 1 .6.4 1 1.1 1.1 1.9 0 1.9-3.3 3.7-7.6 4.1-.4 0-.7.3-.7.7s.3.7.7.7h.1c5.2-.5 8.9-2.8 8.9-5.5-.1-1.2-.7-2.4-1.6-3zm-8.8 7.5s0-.1-.1-.1l-2.1-2.1c-.3-.3-.7-.3-1 0s-.3.7 0 1l.8.8c-4.7-.4-7.8-2.4-7.8-4.1.1-.8.5-1.5 1.1-1.9.3-.2.4-.7.1-1-.2-.3-.7-.4-1-.1-1 .7-1.6 1.8-1.6 3 0 2.9 4 5.2 9.4 5.6l-1 1c-.1.1-.2.3-.2.5 0 .4.3.7.7.7.2 0 .4-.1.5-.2l2.1-2.1s.1-.1.1-.1 0-.1.1-.1c0-.3 0-.5-.1-.8 0 .1 0 .1 0 0zm8.3-11.6c1.1 0 2.1-.9 2.1-2.1s-.9-2.1-2.1-2.1c-1.1 0-2.1.9-2.1 2.1.1 1.2 1 2.1 2.1 2.1zm0-2.8c.4 0 .7.3.7.7s-.3.7-.7.7-.7-.3-.7-.7c.1-.4.4-.7.7-.7z"/></svg>