<svg height="32" viewBox="0 0 32 32" width="32" xmlns="http://www.w3.org/2000/svg"><path d="m9.8 20-4-18h-5.8v2h4.2l4 18.067h23.8v-2.067z"/><path d="m26 24c-1.667 0-3 1.333-3 3s1.333 3 3 3 3-1.333 3-3-1.333-3-3-3zm0 4c-.533 0-1-.4-1-1s.467-1 1-1 1 .4 1 1-.4 1-1 1z"/><path d="m11 24c-1.667 0-3 1.333-3 3s1.333 3 3 3 3-1.333 3-3-1.333-3-3-3zm0 4c-.533 0-1-.4-1-1s.4-1 1-1c.533 0 1 .4 1 1s-.467 1-1 1z"/><path d="m14.667 16.667 5.8-5.8 5.8 5.8 1.4-1.4-5.8-5.8 5.8-5.8-1.4-1.4-5.8 5.8-5.8-5.733-1.333 1.333 5.8 5.8-5.867 5.867z"/></svg>