<svg height="512" viewBox="0 0 576 512" width="576" xmlns="http://www.w3.org/2000/svg"><path d="m569.9 441.1c-.5-.4-22.6-24.2-37.9-54.9 27.5-27.1 44-61.1 44-98.2 0-80-76.5-146.1-176.2-157.9-31.4-57.6-105.5-98.1-191.8-98.1-114.9 0-208 71.6-208 160 0 37 16.5 71 44 98.2-15.3 30.7-37.3 54.5-37.7 54.9-6.3 6.7-8.1 16.5-4.4 25 3.6 8.5 12 14 21.2 14 53.5 0 96.7-20.2 125.2-38.8 9.1 2.1 18.4 3.7 28 4.8 31.5 57.5 105.5 98 191.8 98 20.8 0 40.8-2.4 59.8-6.8 28.5 18.5 71.6 38.8 125.2 38.8 9.2 0 17.5-5.5 21.2-14 3.6-8.5 1.9-18.3-4.4-25zm-414.5-127.1-13.2-3-11.4 7.4c-20.1 13.1-50.5 28.2-87.7 32.5 8.8-11.3 20.2-27.6 29.5-46.4l10.4-20.8-16.5-16.3c-15.8-15.5-34.5-41.2-34.5-75.4 0-70.6 79-128 176-128s176 57.4 176 128-79 128-176 128c-17.7 0-35.4-2-52.6-6zm289.8 100.4-11.4-7.4-13.2 3.1c-17.2 4-34.9 6-52.6 6-65.1 0-122-25.9-152.4-64.3 111.3-3.2 200.4-73.4 200.4-159.8 0-9.5-1.3-18.7-3.3-27.7 75.4 14.5 131.3 64.4 131.3 123.7 0 34.2-18.7 59.9-34.5 75.4l-16.5 16.3 10.3 20.7c9.4 18.9 20.8 35.2 29.5 46.4-37.1-4.2-67.5-19.4-87.6-32.4z" fill="#111"/></svg>