<svg height="512" viewBox="0 0 512 512" width="512" xmlns="http://www.w3.org/2000/svg"><path d="m256 64c123.5 0 224 79 224 176s-100.5 176-224 176c-28.3 0-56.3-4.3-83.2-12.8l-15.2-4.8-13 9.2c-23 16.3-58.5 35.3-102.6 39.6 12-15.1 29.8-40.4 40.8-69.6l7.1-18.7-13.7-14.6c-28.9-30.6-44.2-66.7-44.2-104.3 0-97 100.5-176 224-176m0-32c-141.4 0-256 93.1-256 208 0 47.6 19.9 91.2 52.9 126.3-14.9 39.4-45.9 72.8-46.4 73.2-6.6 7-8.4 17.2-4.6 26s12.4 14.5 22 14.5c61.5 0 110-25.7 139.1-46.3 29 9.1 60.2 14.3 93 14.3 141.4 0 256-93.1 256-208s-114.6-208-256-208z" fill="#111"/></svg>