<svg height="512" width="448" xmlns="http://www.w3.org/2000/svg"><path d="m198.829 275.515 5.656 5.656c4.686 4.686 4.686 12.284 0 16.971l-149.858 149.858h61.373c6.627 0 12 5.373 12 12v8c0 6.627-5.373 12-12 12h-104c-6.627 0-12-5.373-12-12v-104c0-6.627 5.373-12 12-12h8c6.627 0 12 5.373 12 12v61.373l149.858-149.858c4.687-4.687 12.285-4.687 16.971 0zm237.171-243.515h-104c-6.627 0-12 5.373-12 12v8c0 6.627 5.373 12 12 12h61.373l-149.858 149.858c-4.686 4.686-4.686 12.284 0 16.971l5.656 5.656c4.686 4.686 12.284 4.686 16.971 0l149.858-149.858v61.373c0 6.627 5.373 12 12 12h8c6.627 0 12-5.373 12-12v-104c0-6.627-5.373-12-12-12z" fill="#111"/></svg>