<svg height="512" viewBox="0 0 576 512" width="576" xmlns="http://www.w3.org/2000/svg"><path d="m544 0h-.056l-96.167.167c-28.442.049-42.66 34.539-22.572 54.627l35.272 35.272-296.962 296.964c-4.686 4.686-4.686 12.284 0 16.97l8.484 8.485c4.687 4.686 12.285 4.686 16.971 0l296.964-296.964 35.272 35.272c20.023 20.023 54.578 5.98 54.627-22.572l.167-96.166c.03-17.702-14.325-32.055-32-32.055zm-.167 128.167-96-96 96.167-.167zm-95.833 99.514v236.319c0 26.51-21.49 48-48 48h-352c-26.51 0-48-21.49-48-48v-352c0-26.51 21.49-48 48-48h323.976c3.183 0 6.235 1.264 8.485 3.515l8 8c7.56 7.56 2.206 20.485-8.485 20.485h-331.976c-8.837 0-16 7.163-16 16v352c0 8.837 7.163 16 16 16h352c8.837 0 16-7.163 16-16v-228.32c0-3.183 1.264-6.235 3.515-8.485l8-8c7.559-7.559 20.485-2.205 20.485 8.486z" fill="#111"/></svg>