<svg height="512" viewBox="0 0 576 512" width="576" xmlns="http://www.w3.org/2000/svg"><path d="m288 288a64 64 0 0 0 0-128c-1 0-1.88.24-2.85.29a47.5 47.5 0 0 1 -60.86 60.86c0 1-.29 1.88-.29 2.85a64 64 0 0 0 64 64zm284.52-46.6c-54.23-105.81-161.59-177.4-284.52-177.4s-230.32 71.64-284.52 177.41a32.35 32.35 0 0 0 0 29.19c54.23 105.81 161.59 177.4 284.52 177.4s230.32-71.64 284.52-177.41a32.35 32.35 0 0 0 0-29.19zm-284.52-145.4a128 128 0 1 1 -128 128 128.14 128.14 0 0 1 128-128zm0 320c-107.36 0-205.46-61.31-256-160a294.78 294.78 0 0 1 129.78-129.33c-20.87 27.02-33.78 60.5-33.78 97.33a160 160 0 0 0 320 0c0-36.83-12.91-70.31-33.78-97.33a294.78 294.78 0 0 1 129.78 129.33c-50.53 98.69-148.64 160-256 160z" fill="#111"/></svg>