<svg height="512" viewBox="0 0 384 512" width="384" xmlns="http://www.w3.org/2000/svg"><path d="m369.9 97.9-83.9-83.9c-9-9-21.2-14.1-33.9-14.1h-204.1c-26.5.1-48 21.6-48 48.1v416c0 26.5 21.5 48 48 48h288c26.5 0 48-21.5 48-48v-332.1c0-12.7-5.1-25-14.1-34zm-22.6 22.7c2.1 2.1 3.5 4.6 4.2 7.4h-95.5v-95.5c2.8.7 5.3 2.1 7.4 4.2zm-11.3 359.4h-288c-8.8 0-16-7.2-16-16v-416c0-8.8 7.2-16 16-16h176v104c0 13.3 10.7 24 24 24h104v304c0 8.8-7.2 16-16 16zm-48-244v8c0 6.6-5.4 12-12 12h-168c-6.6 0-12-5.4-12-12v-8c0-6.6 5.4-12 12-12h168c6.6 0 12 5.4 12 12zm0 64v8c0 6.6-5.4 12-12 12h-168c-6.6 0-12-5.4-12-12v-8c0-6.6 5.4-12 12-12h168c6.6 0 12 5.4 12 12zm0 64v8c0 6.6-5.4 12-12 12h-168c-6.6 0-12-5.4-12-12v-8c0-6.6 5.4-12 12-12h168c6.6 0 12 5.4 12 12z" fill="#111"/></svg>