<svg height="512" viewBox="0 0 384 512" width="384" xmlns="http://www.w3.org/2000/svg"><path d="m128 96v32h32v-32zm65.9 169.6c-1.1-5.6-6-9.6-11.8-9.6h-22.1v-32h-32v32l-19.4 97.2c-6.5 32.5 18.3 62.8 51.4 62.8s57.9-30.3 51.4-62.8zm-33.6 124.5c-17.9 0-32.4-12.1-32.4-27s14.5-27 32.4-27 32.4 12.1 32.4 27-14.5 27-32.4 27zm-32.3-230.1v32h32v-32zm64-96h-32v32h32zm177.9 33.9-83.9-83.9c-9-9-21.2-14.1-33.9-14.1h-204.1c-26.5.1-48 21.6-48 48.1v416c0 26.5 21.5 48 48 48h288c26.5 0 48-21.5 48-48v-332.1c0-12.7-5.1-25-14.1-34zm-113.9-65.4c2.8.7 5.4 2.1 7.4 4.2l83.9 83.9c2 2 3.5 4.6 4.2 7.4h-95.5zm96 431.5c0 8.8-7.2 16-16 16h-288c-8.8 0-16-7.2-16-16v-416c0-8.8 7.2-16 16-16h79.7v32h32v-32h64.3v104c0 13.3 10.7 24 24 24h104zm-160-272h-32v32h32zm0-64h-32v32h32z" fill="#111"/></svg>