<svg height="512" viewBox="0 0 576 512" width="576" xmlns="http://www.w3.org/2000/svg"><path d="m527.95 224h-47.95v-48c0-26.51-21.49-48-48-48h-160l-64-64h-160c-26.51 0-48 21.49-48 48v288c0 26.51 21.49 48 48 48h385.057c28.068 0 54.135-14.733 68.599-38.84l67.453-112.464c19.131-31.884-3.824-72.696-41.159-72.696zm-479.95-128h146.745l64 64h173.255c8.837 0 16 7.163 16 16v48h-276.823c-28.068 0-54.135 14.733-68.599 38.84l-70.578 117.63v-268.47c0-8.837 7.163-16 16-16zm493.695 184.232-67.479 112.464a47.997 47.997 0 0 1 -41.159 23.304h-388.234l82.017-136.696a48 48 0 0 1 41.16-23.304h359.975c12.437 0 20.119 13.568 13.72 24.232z" fill="#111"/></svg>