<svg height="512" viewBox="0 0 496 512" width="496" xmlns="http://www.w3.org/2000/svg"><path d="m248 8c-137 0-248 111-248 248s111 248 248 248 248-111 248-248-111-248-248-248zm0 464c-119.1 0-216-96.9-216-216s96.9-216 216-216 216 96.9 216 216-96.9 216-216 216zm0-152c-44.4 0-86.2 19.6-114.8 53.8-5.7 6.8-4.8 16.9 2 22.5 6.8 5.7 16.9 4.8 22.5-2 22.4-26.8 55.3-42.2 90.2-42.2s67.8 15.4 90.2 42.2c5.3 6.4 15.4 8 22.5 2 6.8-5.7 7.7-15.8 2-22.5-28.4-34.2-70.2-53.8-114.6-53.8zm-80-80c17.7 0 32-14.3 32-32s-14.3-32-32-32-32 14.3-32 32 14.3 32 32 32zm160 0c17.7 0 32-14.3 32-32s-14.3-32-32-32-32 14.3-32 32 14.3 32 32 32z" fill="#111"/></svg>