<svg height="512" viewBox="0 0 512 512" width="512" xmlns="http://www.w3.org/2000/svg"><path d="m464 144h-39.3c9.5-13.4 15.3-29.9 15.3-48 0-44.1-33.4-80-74.5-80-42.3 0-66.8 25.4-109.5 95.8-42.7-70.4-67.2-95.8-109.5-95.8-41.1 0-74.5 35.9-74.5 80 0 18.1 5.8 34.6 15.3 48h-39.3c-26.5 0-48 21.5-48 48v96c0 8.8 7.2 16 16 16h16v144c0 26.5 21.5 48 48 48h352c26.5 0 48-21.5 48-48v-144h16c8.8 0 16-7.2 16-16v-96c0-26.5-21.5-48-48-48zm-187.8-3.6c49.5-83.3 66-92.4 89.3-92.4 23.4 0 42.5 21.5 42.5 48s-19.1 48-42.5 48h-91.5zm-129.7-92.4c23.4 0 39.8 9.1 89.3 92.4l2.1 3.6h-91.5c-23.4 0-42.5-21.5-42.5-48 .1-26.5 19.2-48 42.6-48zm45.5 416h-112c-8.8 0-16-7.2-16-16v-144h128zm0-192h-160v-80c0-8.8 7.2-16 16-16h144zm96 192h-64v-288h64zm160-16c0 8.8-7.2 16-16 16h-112v-160h128zm32-176h-160v-96h144c8.8 0 16 7.2 16 16z" fill="#111"/></svg>