<svg height="512" viewBox="0 0 576 512" width="576" xmlns="http://www.w3.org/2000/svg"><path d="m541 229.16-61-49.83v-77.4a6 6 0 0 0 -6-6h-20a6 6 0 0 0 -6 6v51.33l-139.81-114.12a32.16 32.16 0 0 0 -40.38 0l-232.81 190.02a8 8 0 0 0 -1.16 11.24l10.1 12.41a8 8 0 0 0 11.2 1.19l40.86-33.38v243a16 16 0 0 0 16 16h128a16 16 0 0 0 16-16v-128l64 .3v128.08a16 16 0 0 0 16 16l128-.33a16 16 0 0 0 16-16v-243.05l40.86 33.38a8 8 0 0 0 11.25-1.16l10.1-12.41a8 8 0 0 0 -1.21-11.27zm-93.11 218.59h.1l-96 .3v-128.17a16.05 16.05 0 0 0 -15.95-16l-96-.27a16 16 0 0 0 -16.05 16v128.14h-95.99v-253.24l160-130.57 160 130.57z" fill="#111"/></svg>