<svg height="512" viewBox="0 0 512 512" width="512" xmlns="http://www.w3.org/2000/svg"><path d="m256 40c118.621 0 216 96.075 216 216 0 119.291-96.61 216-216 216-119.244 0-216-96.562-216-216 0-119.203 96.602-216 216-216m0-32c-136.957 0-248 111.083-248 248 0 136.997 111.043 248 248 248s248-111.003 248-248c0-136.917-111.043-248-248-248zm-36 344h12v-120h-12c-6.627 0-12-5.373-12-12v-8c0-6.627 5.373-12 12-12h48c6.627 0 12 5.373 12 12v140h12c6.627 0 12 5.373 12 12v8c0 6.627-5.373 12-12 12h-72c-6.627 0-12-5.373-12-12v-8c0-6.627 5.373-12 12-12zm36-240c-17.673 0-32 14.327-32 32s14.327 32 32 32 32-14.327 32-32-14.327-32-32-32z" fill="#111"/></svg>