<svg height="32" viewBox="0 0 24 32" width="24" xmlns="http://www.w3.org/2000/svg"><path d="m12 0c-6.6 0-12 5.4-12 12 0 4.8 1.6 6.2 10.8 19.4.3.4.75.6 1.2.6s.9-.2 1.2-.6c9.2-13.2 10.8-14.6 10.8-19.4 0-6.6-5.4-12-12-12zm.001 29.625c-1.229-1.761-2.318-3.303-3.281-4.668-6.055-8.584-6.72-9.637-6.72-12.957 0-5.514 4.486-10 10-10s10 4.486 10 10c0 3.319-.665 4.373-6.72 12.957-.97 1.376-2.068 2.933-3.279 4.668zm5.583-21.221c-.09-.09-.215-.146-.353-.146h-.001c-.128 0-.256.049-.354.146l-6.718 6.717-3.036-3.036c-.09-.09-.215-.146-.353-.146h-.001c-.128 0-.256.049-.354.146l-.707.707c-.195.195-.195.512 0 .707l4.096 4.096c.098.098.226.146.354.146s.256-.049.353-.146l7.778-7.778c.195-.195.195-.512 0-.707l-.706-.707z"/></svg>