<svg height="512" viewBox="0 0 512 512" width="512" xmlns="http://www.w3.org/2000/svg"><path d="m493.255 56.236-37.49-37.49c-24.993-24.993-65.515-24.994-90.51 0l-352.417 352.416-12.687 114.184c-1.698 15.286 11.22 28.203 26.504 26.504l114.184-12.687 352.417-352.417c24.992-24.994 24.992-65.517-.001-90.51zm-328.569 291.077c6.249 6.249 16.379 6.248 22.627 0l180.687-180.686 30.059 30.059-224.059 224.059v-34.745h-48v-48h-34.745l224.059-224.059 30.059 30.059-180.687 180.687c-6.249 6.248-6.249 16.378 0 22.626zm-38.539 121.285-58.995 6.555-30.305-30.305 6.555-58.995 19.853-19.853h34.745v48h48v34.745zm344.48-344.48-49.941 49.941-82.745-82.745 49.941-49.941c12.505-12.505 32.748-12.507 45.255 0l37.49 37.49c12.506 12.506 12.507 32.747 0 45.255z" fill="#111"/></svg>