<svg width="42" height="40" viewBox="0 0 42 40" fill="none" xmlns="http://www.w3.org/2000/svg">
<path d="M36.6383 0C38.2153 1.07419 39.4768 2.57805 40.423 4.51158C41.4743 6.44512 42 9.02316 42 12.2457C42 16.9721 40.9487 21.806 38.8461 26.7472C36.7434 31.5811 33.9574 35.9852 30.4881 39.9597C29.6471 40.0671 28.5957 39.9597 27.3342 39.6375C26.0726 39.3152 25.0738 38.8855 24.3379 38.3484C26.02 35.9852 27.4393 33.2998 28.5957 30.292C29.8573 27.2843 30.4881 24.7063 30.4881 22.5579C30.4881 20.517 29.9625 18.7445 28.9111 17.2407C27.965 15.7368 26.1777 14.8775 23.5494 14.6626C23.4443 13.2662 23.4969 11.5475 23.7071 9.50654C23.9174 7.46559 24.2854 5.85431 24.811 4.67271C29.2265 3.92077 33.169 2.3632 36.6383 0ZM13.2991 0.483378C14.9812 1.55756 16.2954 3.06142 17.2416 4.99496C18.1877 6.92849 18.6608 9.50654 18.6608 12.7291C18.6608 17.4555 17.6095 22.1282 15.5069 26.7472C13.4043 31.3662 10.6708 35.663 7.30663 39.6375C6.36045 39.7449 5.25657 39.6375 3.99499 39.3152C2.83855 38.993 1.89237 38.5633 1.15645 38.0262C2.73342 35.663 4.15269 33.0312 5.41427 30.1309C6.67585 27.2306 7.30663 24.7063 7.30663 22.5579C7.30663 20.517 6.72841 18.7445 5.57197 17.2407C4.52065 15.7368 2.68085 14.8775 0.0525656 14.6626C-0.0525657 13.2662 1.30548e-07 11.6549 0.210263 9.8288C0.420525 7.89527 0.788485 6.33769 1.31414 5.15608C3.5219 4.72642 5.6771 4.13561 7.77972 3.38368C9.88235 2.63175 11.7222 1.66499 13.2991 0.483378Z" fill="#000"/>
</svg>
