<svg height="512" viewBox="0 0 576 512" width="576" xmlns="http://www.w3.org/2000/svg"><path d="m11.093 251.65 175.998 184c24.719 25.844 68.909 8.589 68.909-27.65v-87.84c154.425 1.812 219.063 16.728 181.19 151.091-8.341 29.518 25.447 52.232 49.68 34.51 33.29-24.34 89.13-79.591 89.13-174.571 0-171.087-154.548-201.035-320-203.02v-88.154c0-36.27-44.216-53.466-68.91-27.65l-175.997 183.984c-14.791 15.47-14.791 39.83 0 55.3zm23.127-33.18 176-184c4.929-5.16 13.78-1.732 13.78 5.53v120c157.114 0 320 11.18 320 171.19 0 74.4-40 122.17-76.02 148.51 51.333-181.993-72.584-191.7-243.98-191.7v120c0 7.26-8.847 10.69-13.78 5.53l-176-184a7.978 7.978 0 0 1 0-11.06z" fill="#111"/></svg>