<svg enable-background="new 0 0 20.1 17" viewBox="0 0 20.1 17" xmlns="http://www.w3.org/2000/svg"><path clip-rule="evenodd" d="m1.4 0c-.4 0-.7.3-.7.7 0 .1 0 .2.1.3 1.2 2.3 2.5 4.7 3.7 7h-3.8c-.4.1-.7.4-.7.8v5.9c0 .4.3.7.7.7h.7v.7c0 .4.3.7.7.8.4 0 .7-.3.7-.7v-.7h14.3v.7c0 .4.3.7.7.7s.7-.3.7-.7v-.7h.7c.4 0 .7-.3.7-.7v-6c0-.4-.3-.7-.7-.7h-4.6c1.2-2.3 2.5-4.7 3.7-7 .2-.4.1-.8-.3-1 .1-.1 0-.1-.1-.1-.3 0-.5.2-.6.4-1.4 2.6-2.7 5.1-4.1 7.7h-7c-1.4-2.6-2.8-5.1-4.1-7.7-.2-.3-.4-.4-.7-.4zm0 9.6h4.2.1 7.7.1 5v4.4h-.5-.1-.1-15.5-.1-.1-.7zm2.2.7c-.4 0-.7.3-.7.7v1.5c0 .4.3.7.7.7s.7-.3.7-.7v-1.5c0-.4-.3-.7-.7-.7zm2.8 0c-.4 0-.7.3-.7.7v1.5c0 .4.3.7.7.7s.7-.3.7-.7v-1.5c.1-.4-.2-.7-.7-.7zm10.1.8c-.4 0-.7.3-.7.7s.3.7.7.7.7-.3.7-.7-.3-.7-.7-.7z" fill-rule="evenodd"/></svg>