<svg height="512" viewBox="0 0 576 512" width="576" xmlns="http://www.w3.org/2000/svg"><path d="m551.991 64h-422.711l-8.329-44.423c-2.129-11.351-12.04-19.577-23.589-19.577h-85.362c-6.627 0-12 5.373-12 12v8c0 6.627 5.373 12 12 12h78.72l69.927 372.946c-10.342 11.368-16.647 26.474-16.647 43.054 0 35.346 28.654 64 64 64s64-28.654 64-64a63.681 63.681 0 0 0 -8.583-32h145.167a63.681 63.681 0 0 0 -8.583 32c0 35.346 28.654 64 64 64s64-28.654 64-64c0-17.993-7.435-34.24-19.388-45.868-2.591-10.241-11.853-18.132-23.285-18.132h-296.048l-12-64h331.381c11.368 0 21.177-7.976 23.496-19.105l43.331-208c3.104-14.904-8.273-28.895-23.497-28.895zm-311.991 384c0 17.645-14.355 32-32 32s-32-14.355-32-32 14.355-32 32-32 32 14.355 32 32zm224 32c-17.645 0-32-14.355-32-32s14.355-32 32-32 32 14.355 32 32-14.355 32-32 32zm38.156-192h-330.876l-36-192h406.876z" fill="#111"/></svg>