<svg height="512" viewBox="0 0 512 512" width="512" xmlns="http://www.w3.org/2000/svg"><path d="m160 217.1c0-8.8 7.2-16 16-16h144v-93.9c0-7.1 8.6-10.7 13.6-5.7l141.6 143.1c6.3 6.3 6.3 16.4 0 22.7l-141.6 143.1c-5 5-13.6 1.5-13.6-5.7v-93.9h-144c-8.8 0-16-7.2-16-16zm-32 0v77.7c0 26.5 21.5 48 48 48h112v61.9c0 35.5 43 53.5 68.2 28.3l141.7-143c18.8-18.8 18.8-49.2 0-68l-141.7-143.1c-25.1-25.1-68.2-7.3-68.2 28.3v61.9h-112c-26.5 0-48 21.6-48 48zm-128-105.1v288c0 26.5 21.5 48 48 48h132c6.6 0 12-5.4 12-12v-8c0-6.6-5.4-12-12-12h-132c-8.8 0-16-7.2-16-16v-288c0-8.8 7.2-16 16-16h132c6.6 0 12-5.4 12-12v-8c0-6.6-5.4-12-12-12h-132c-26.5 0-48 21.5-48 48z" fill="#111"/></svg>