<svg height="512" viewBox="0 0 496 512" width="496" xmlns="http://www.w3.org/2000/svg"><path d="m248 8c-137 0-248 111-248 248s111 248 248 248 248-111 248-248-111-248-248-248zm0 464c-119.1 0-216-96.9-216-216s96.9-216 216-216 216 96.9 216 216-96.9 216-216 216zm90.2-146.2c-22.4 26.8-55.3 42.2-90.2 42.2s-67.8-15.4-90.2-42.2c-5.7-6.8-15.8-7.7-22.5-2-6.8 5.7-7.7 15.7-2 22.5 28.4 34.1 70.3 53.7 114.7 53.7s86.3-19.6 114.8-53.8c5.7-6.8 4.8-16.9-2-22.5s-16.9-4.7-22.6 2.1zm-170.2-85.8c17.7 0 32-14.3 32-32s-14.3-32-32-32-32 14.3-32 32 14.3 32 32 32zm160 0c17.7 0 32-14.3 32-32s-14.3-32-32-32-32 14.3-32 32 14.3 32 32 32z" fill="#111"/></svg>