<svg height="512" width="616" xmlns="http://www.w3.org/2000/svg"><path d="m602 118.6-64.9-103.6c-5.8-9.3-16.1-15-27.1-15h-404c-11 0-21.3 5.7-27.1 15l-64.9 103.6c-29.6 47.2-10 110.6 38 130.8v227.4c0 19.4 14.3 35.2 32 35.2h448c17.7 0 32-15.8 32-35.2v-227.4c48-20.2 67.6-83.6 38-130.8zm-70 358.2c0 2-.8 3.1-.2 3.2l-446.6.3c-.3-.2-1.2-1.3-1.2-3.5v-124.8h448zm-448-156.8v-64h2.5c29.6 0 55.8-13 73.8-33.1 18 20.1 44.3 33.1 73.8 33.1 29.6 0 55.8-13 73.8-33.1 18 20.1 44.3 33.1 73.8 33.1 29.6 0 55.8-13 73.8-33.1 18.1 20.1 44.3 33.1 73.9 33.1h2.5v64zm494.2-126.5c-7.8 16.6-22.1 27.5-39.3 29.8-3.1.4-6.2.6-9.4.6-19.3 0-37-8-50-22.5l-23.8-26.4-23.8 26.6c-13 14.5-30.7 22.5-50 22.5s-37-8-50-22.5l-23.9-26.6-23.8 26.6c-13 14.5-30.7 22.5-50 22.5s-37-8-50-22.5l-23.9-26.6-23.8 26.6c-13 14.5-30.7 22.5-50 22.5-3.2 0-6.3-.2-9.4-.6-17.2-2.3-31.5-13.2-39.3-29.8-8.7-18.6-7.5-40.8 3.3-57.9l64.9-103.8h404l64.9 103.6c10.8 17.2 12 39.3 3.3 57.9z" fill="#111"/></svg>