<svg height="512" viewBox="0 0 576 512" width="576" xmlns="http://www.w3.org/2000/svg"><path d="m288 152c13.26 0 24-10.74 24-24s-10.74-24-24-24-24 10.74-24 24 10.74 24 24 24zm-136 8c-13.26 0-24 10.74-24 24s10.74 24 24 24 24-10.74 24-24-10.74-24-24-24zm272 0c-13.26 0-24 10.74-24 24s10.74 24 24 24 24-10.74 24-24-10.74-24-24-24zm56 136c-13.26 0-24 10.74-24 24s10.74 24 24 24 24-10.74 24-24-10.74-24-24-24zm-192-264c-159.06 0-288 128.94-288 288 0 52.8 14.25 102.26 39.06 144.8 5.61 9.62 16.3 15.2 27.44 15.2h443c11.14 0 21.83-5.58 27.44-15.2 24.81-42.54 39.06-92 39.06-144.8 0-159.06-128.94-288-288-288zm221.5 416-442.8.68c-22.7-38.93-34.7-83.42-34.7-128.68 0-141.16 114.84-256 256-256s256 114.84 256 256c0 45.26-12 89.75-34.5 128zm-413.5-152c-13.26 0-24 10.74-24 24s10.74 24 24 24 24-10.74 24-24-10.74-24-24-24zm269.22-167.12c-8.19-2.78-17.44 1.55-20.34 9.89l-51.83 149.74c-1.69-.13-3.31-.51-5.04-.51-35.35 0-64 28.65-64 64s28.65 64 64 64 64-28.65 64-64c0-22.25-11.38-41.82-28.62-53.29l51.74-149.48c2.87-8.34-1.54-17.46-9.91-20.35zm-77.22 255.12c-17.64 0-32-14.36-32-32s14.36-32 32-32 32 14.36 32 32-14.36 32-32 32z" fill="#111"/></svg>