<svg height="512" viewBox="0 0 384 512" width="384" xmlns="http://www.w3.org/2000/svg"><path d="m300.8 203.9-10.1-75.9h37.3c13.2 0 24-10.8 24-24v-80c0-13.2-10.8-24-24-24h-272c-13.2 0-24 10.8-24 24v80c0 13.2 10.8 24 24 24h37.3l-10.1 75.9c-48.3 27.6-83.2 74.5-83.2 131.3 0 8.8 7.2 16 16 16h160v120.8c0 .7.1 1.3.2 1.9l8 32c2 8 13.5 8.1 15.5 0l8-32c.2-.6.2-1.3.2-1.9v-120.8h160c8.8 0 16-7.2 16-16 .1-56.8-34.8-103.7-83.1-131.3zm-267.5 115.3c6.8-42.9 39.6-76.4 79.5-94.5l15.2-128.7h-64v-64h256v64h-64l15.3 128.8c40 18.2 72.7 51.8 79.5 94.5h-317.5z" fill="#111"/></svg>