<svg height="512" viewBox="0 0 320 512" width="320" xmlns="http://www.w3.org/2000/svg"><path d="m193.94 256 102.56-102.56 21.15-21.15c3.12-3.12 3.12-8.19 0-11.31l-22.63-22.63c-3.12-3.12-8.19-3.12-11.31 0l-123.71 123.71-123.71-123.72c-3.12-3.12-8.19-3.12-11.31 0l-22.64 22.63c-3.12 3.12-3.12 8.19 0 11.31l123.72 123.72-123.72 123.71c-3.12 3.12-3.12 8.19 0 11.31l22.63 22.63c3.12 3.12 8.19 3.12 11.31 0l123.72-123.71 102.56 102.56 21.15 21.15c3.12 3.12 8.19 3.12 11.31 0l22.63-22.63c3.12-3.12 3.12-8.19 0-11.31z" fill="#111"/></svg>