<svg height="512" viewBox="0 0 640 512" width="640" xmlns="http://www.w3.org/2000/svg"><path d="m632 384h-24v-108.1c0-16.8-6.8-33.3-18.8-45.2l-83.9-83.9c-11.8-12-28.3-18.8-45.2-18.8h-44.1v-49.4c0-25.7-22.2-46.6-49.4-46.6h-317.2c-27.2 0-49.4 20.9-49.4 46.6v290.8c0 25.7 22.2 46.6 49.4 46.6h16.2c-1.1 5.2-1.6 10.5-1.6 16 0 44.2 35.8 80 80 80s80-35.8 80-80c0-5.5-.6-10.8-1.6-16h195.2c-1.1 5.2-1.6 10.5-1.6 16 0 44.2 35.8 80 80 80s80-35.8 80-80c0-5.5-.6-10.8-1.6-16h57.6c4.4 0 8-3.6 8-8v-16c0-4.4-3.6-8-8-8zm-171.9-224c8.4 0 16.7 3.4 22.6 9.4l83.9 83.9c.8.8 1.1 1.9 1.8 2.8h-152.4v-96h44.1zm-316.1 320c-26.5 0-48-21.5-48-48s21.5-48 48-48 48 21.5 48 48-21.5 48-48 48zm63.6-96c-14.6-19.3-37.6-32-63.6-32s-49 12.7-63.6 32h-31c-9.6 0-17.4-6.5-17.4-14.6v-290.8c0-8.1 7.8-14.6 17.4-14.6h317.2c9.6 0 17.4 6.5 17.4 14.6v305.4zm288.4 96c-26.5 0-48-21.5-48-48s21.5-48 48-48 48 21.5 48 48-21.5 48-48 48zm0-128c-26.1 0-49 12.7-63.6 32h-16.4v-96h160v96h-16.4c-14.6-19.3-37.5-32-63.6-32z" fill="#111"/></svg>